<?xml version="1.0" encoding="utf-8"?>
<!-- Generator: Adobe Illustrator 18.1.1, SVG Export Plug-In . SVG Version: 6.00 Build 0)  -->
<svg version="1.1" id="Layer_1" xmlns="http://www.w3.org/2000/svg" xmlns:xlink="http://www.w3.org/1999/xlink" x="0px" y="0px"
	 width="50px" height="2000px" viewBox="-272 -580.1 50 2000" enable-background="new -272 -580.1 50 2000" xml:space="preserve">
<path fill="#000100" d="M-264.3,24.8h-7c-0.3,0-0.5-0.2-0.5-0.5c0-0.1,0.1-0.3,0.1-0.4l3.5-3.5c0.1-0.1,0.2-0.1,0.4-0.1
	s0.3,0.1,0.4,0.1l3.5,3.5c0.1,0.1,0.1,0.2,0.1,0.4C-263.8,24.6-264,24.8-264.3,24.8z"/>
<path fill="#000100" d="M-263.9,127.4l-3.5,3.5c-0.1,0.1-0.2,0.1-0.4,0.1s-0.3-0.1-0.4-0.1l-3.5-3.5c-0.1-0.1-0.1-0.2-0.1-0.4
	c0-0.3,0.2-0.5,0.5-0.5h7c0.3,0,0.5,0.2,0.5,0.5C-263.8,127.2-263.9,127.3-263.9,127.4z"/>
<path fill="#000100" d="M-264.3,124.6h-7c-0.3,0-0.5-0.2-0.5-0.5c0-0.1,0.1-0.3,0.1-0.4l3.5-3.5c0.1-0.1,0.2-0.1,0.4-0.1
	s0.3,0.1,0.4,0.1l3.5,3.5c0.1,0.1,0.1,0.2,0.1,0.4C-263.8,124.4-264,124.6-264.3,124.6z"/>
<path fill="#000100" d="M-263.9,71.2l-3.5,3.5c-0.1,0.1-0.2,0.1-0.4,0.1s-0.3-0.1-0.4-0.1l-3.5-3.5c-0.1-0.1-0.1-0.2-0.1-0.4
	c0-0.3,0.2-0.5,0.5-0.5h7c0.3,0,0.5,0.2,0.5,0.5C-263.8,71-263.9,71.1-263.9,71.2z"/>
<path fill="#588A70" d="M-254.8,576.6h-6v-6c0-0.6-0.4-1-1-1h-2c-0.6,0-1,0.4-1,1v6h-6c-0.6,0-1,0.4-1,1v2c0,0.6,0.4,1,1,1h6v6
	c0,0.6,0.4,1,1,1h2c0.6,0,1-0.4,1-1v-6h6c0.6,0,1-0.4,1-1v-2C-253.8,577-254.2,576.6-254.8,576.6z"/>
<path fill="#426955" d="M-254.8,626.6h-6v-6c0-0.6-0.4-1-1-1h-2c-0.6,0-1,0.4-1,1v6h-6c-0.6,0-1,0.4-1,1v2c0,0.6,0.4,1,1,1h6v6
	c0,0.6,0.4,1,1,1h2c0.6,0,1-0.4,1-1v-6h6c0.6,0,1-0.4,1-1v-2C-253.8,627-254.2,626.6-254.8,626.6z"/>
<path fill="#588A70" d="M-259.6,670.5l-4.2,4.2l-4.2-4.2c-0.4-0.4-1-0.4-1.4,0l-1.4,1.4c-0.4,0.4-0.4,1,0,1.4l4.2,4.2l-4.2,4.2
	c-0.4,0.4-0.4,1,0,1.4l1.4,1.4c0.4,0.4,1,0.4,1.4,0l4.2-4.2l4.2,4.2c0.4,0.4,1,0.4,1.4,0l1.4-1.4c0.4-0.4,0.4-1,0-1.4l-4.2-4.2
	l4.2-4.2c0.4-0.4,0.4-1,0-1.4l-1.4-1.4C-258.5,670.1-259.2,670.1-259.6,670.5z"/>
<path fill="#426955" d="M-259.6,720.5l-4.2,4.2l-4.2-4.2c-0.4-0.4-1-0.4-1.4,0l-1.4,1.4c-0.4,0.4-0.4,1,0,1.4l4.2,4.2l-4.2,4.2
	c-0.4,0.4-0.4,1,0,1.4l1.4,1.4c0.4,0.4,1,0.4,1.4,0l4.2-4.2l4.2,4.2c0.4,0.4,1,0.4,1.4,0l1.4-1.4c0.4-0.4,0.4-1,0-1.4l-4.2-4.2
	l4.2-4.2c0.4-0.4,0.4-1,0-1.4l-1.4-1.4C-258.5,720.1-259.2,720.1-259.6,720.5z"/>
<path d="M-252.6-28.7l-1.4-1.4c-0.4-0.4-1-0.4-1.4,0l-6.4,6.4l-6.4-6.4c-0.4-0.4-1-0.4-1.4,0l-1.4,1.4c-0.4,0.4-0.4,1,0,1.4l8.5,8.5
	l0,0l0,0c0.4,0.4,1,0.4,1.4,0l8.5-8.5C-252.2-27.6-252.2-28.3-252.6-28.7z"/>
<path d="M-252.6-70.2l-1.4,1.4c-0.4,0.4-1,0.4-1.4,0l-6.4-6.4l-6.4,6.4c-0.4,0.4-1,0.4-1.4,0l-1.4-1.4c-0.4-0.4-0.4-1,0-1.4l8.5-8.5
	l0,0l0,0c0.4-0.4,1-0.4,1.4,0l8.5,8.5C-252.2-71.2-252.2-70.6-252.6-70.2z"/>
<path d="M-266.6,780.9l-4.2-4.2c-0.4-0.4-0.4-1,0-1.4l0.7-0.7c0.4-0.4,1-0.4,1.4,0l2.8,2.8l7.1-7.1c0.4-0.4,1-0.4,1.4,0l0.7,0.7
	c0.4,0.4,0.4,1,0,1.4l-8.5,8.5C-265.6,781.3-266.2,781.3-266.6,780.9z"/>
<path fill="#ED1C24" d="M-260.5,928.8l-3.2-3.2l3.2-3.2c0.4-0.4,0.4-1,0-1.4l-0.7-0.7c-0.4-0.4-1-0.4-1.4,0l-3.2,3.2l-3.2-3.2
	c-0.4-0.4-1-0.4-1.4,0l-0.7,0.7c-0.4,0.4-0.4,1,0,1.4l3.2,3.2l-3.2,3.2c-0.4,0.4-0.4,1,0,1.4l0.7,0.7c0.4,0.4,1,0.4,1.4,0l3.2-3.2
	l3.2,3.2c0.4,0.4,1,0.4,1.4,0l0.7-0.7C-260.1,929.8-260.1,929.2-260.5,928.8z"/>
<path fill="#588A70" d="M-251,174.4l-3.5-3.5c-0.4-0.4-1-0.4-1.4,0l-2.8,2.8l4.9,4.9l2.8-2.8C-250.7,175.4-250.7,174.8-251,174.4z"
	/>
<path fill="#588A70" d="M-259.5,174.4l-11.3,11.3v4.9h4.9l11.3-11.3L-259.5,174.4z M-267,183.2l7.1-7.1c0.2-0.2,0.5-0.2,0.7,0
	s0.2,0.5,0,0.7l-7.1,7.1l0,0c-0.2,0.2-0.5,0.2-0.7,0C-267.2,183.7-267.2,183.4-267,183.2L-267,183.2z M-266.3,189.6h-1.8v-1.8h-1.8
	V186l1.8-1.8l3.5,3.5L-266.3,189.6z"/>
<path fill="#426955" d="M-251,224.4l-3.5-3.5c-0.4-0.4-1-0.4-1.4,0l-2.8,2.8l4.9,4.9l2.8-2.8C-250.7,225.4-250.7,224.8-251,224.4z"
	/>
<path fill="#426955" d="M-259.5,224.4l-11.3,11.3v4.9h4.9l11.3-11.3L-259.5,224.4z M-267,233.2l7.1-7.1c0.2-0.2,0.5-0.2,0.7,0
	s0.2,0.5,0,0.7l-7.1,7.1l0,0c-0.2,0.2-0.5,0.2-0.7,0C-267.2,233.7-267.2,233.4-267,233.2L-267,233.2z M-266.3,239.6h-1.8v-1.8h-1.8
	V236l1.8-1.8l3.5,3.5L-266.3,239.6z"/>
<path fill="#FFFFFF" d="M-254.8,472.6h-2v-1c0-1.1-0.9-2-2-2s-2,0.9-2,2l0,0v1h-4v-1l0,0c0-1.1-0.9-2-2-2s-2,0.9-2,2v1h-2
	c-0.6,0-1,0.4-1,1v13c0,0.6,0.4,1,1,1l0,0h16c0.6,0,1-0.4,1-1v-13C-253.8,473-254.2,472.6-254.8,472.6z M-259.8,471.6
	c0-0.6,0.4-1,1-1s1,0.4,1,1v2c0,0.6-0.4,1-1,1s-1-0.4-1-1V471.6z M-267.8,471.6c0-0.6,0.4-1,1-1s1,0.4,1,1v2c0,0.6-0.4,1-1,1
	s-1-0.4-1-1V471.6z M-255.8,485.6h-14v-9h14V485.6z"/>
<path fill="#E6E6E6" d="M-254.8,522.6h-2v-1c0-1.1-0.9-2-2-2s-2,0.9-2,2l0,0v1h-4v-1l0,0c0-1.1-0.9-2-2-2s-2,0.9-2,2v1h-2
	c-0.6,0-1,0.4-1,1v13c0,0.6,0.4,1,1,1l0,0h16c0.6,0,1-0.4,1-1v-13C-253.8,523-254.2,522.6-254.8,522.6z M-259.8,521.6
	c0-0.6,0.4-1,1-1s1,0.4,1,1v2c0,0.6-0.4,1-1,1s-1-0.4-1-1V521.6z M-267.8,521.6c0-0.6,0.4-1,1-1s1,0.4,1,1v2c0,0.6-0.4,1-1,1
	s-1-0.4-1-1V521.6z M-255.8,535.6h-14v-9h14V535.6z"/>
<path fill="#588A70" d="M-251.8,269.6h-18c-1.1,0-2,0.9-2,2v14c0,1.1,0.9,2,2,2h18c1.1,0,2-0.9,2-2v-14
	C-249.8,270.5-250.7,269.6-251.8,269.6z M-251.8,271.6l-8.3,8.3c-0.4,0.4-1,0.4-1.4,0l-8.3-8.3H-251.8z M-252.8,285.6h-16
	c-0.6,0-1-0.4-1-1v-10.2l7.6,7.6c0.8,0.8,2,0.8,2.8,0l7.6-7.6v10.2C-251.8,285.1-252.2,285.6-252.8,285.6z"/>
<path fill="#426955" d="M-251.8,319.6h-18c-1.1,0-2,0.9-2,2v14c0,1.1,0.9,2,2,2h18c1.1,0,2-0.9,2-2v-14
	C-249.8,320.5-250.7,319.6-251.8,319.6z M-251.8,321.6l-8.3,8.3c-0.4,0.4-1,0.4-1.4,0l-8.3-8.3H-251.8z M-252.8,335.6h-16
	c-0.6,0-1-0.4-1-1v-10.2l7.6,7.6c0.8,0.8,2,0.8,2.8,0l7.6-7.6v10.2C-251.8,335.1-252.2,335.6-252.8,335.6z"/>
<path fill="#588A70" d="M-252.8,376.6v-2l-5-5h-10c-0.6,0-1,0.4-1,1v6c-1.7,0-3,1.3-3,3v5c0,0.6,0.4,1,1,1h2v3c0,0.6,0.4,1,1,1h14
	c0.6,0,1-0.4,1-1v-3h2c0.6,0,1-0.4,1-1v-5C-249.8,377.9-251.1,376.6-252.8,376.6z M-254.8,387.6h-12v-4h12V387.6z M-254.8,378.6h-12
	v-7h9v2c0,0.6,0.4,1,1,1h2V378.6z M-253.8,379.6c0-0.6,0.4-1,1-1s1,0.4,1,1s-0.4,1-1,1S-253.8,380.1-253.8,379.6z"/>
<path fill="#426955" d="M-252.8,426.6v-2l-5-5h-10c-0.6,0-1,0.4-1,1v6c-1.7,0-3,1.3-3,3v5c0,0.6,0.4,1,1,1h2v3c0,0.6,0.4,1,1,1h14
	c0.6,0,1-0.4,1-1v-3h2c0.6,0,1-0.4,1-1v-5C-249.8,427.9-251.1,426.6-252.8,426.6z M-254.8,437.6h-12v-4h12V437.6z M-254.8,428.6h-12
	v-7h9v2c0,0.6,0.4,1,1,1h2V428.6z M-253.8,429.6c0-0.6,0.4-1,1-1s1,0.4,1,1s-0.4,1-1,1S-253.8,430.1-253.8,429.6z"/>
<path fill="#FFFFFF" d="M-258.2,826.7l-2.3-6.1c-0.2-0.5-0.8-0.9-1.4-0.9h-2v4h3l-4,4l-4-4h3v-4h-2c-0.5,0-1.2,0.4-1.4,0.9l-2.3,6.1
	c-0.2,0.5-0.4,1.4-0.4,1.9v4c0,0.6,0.5,1,1,1h12c0.5,0,1-0.4,1-1v-4C-257.8,828-258,827.2-258.2,826.7z M-259.8,830.6
	c0,0.6-0.5,1-1,1h-8c-0.5,0-1-0.4-1-1v-1c0-0.6,0.5-1,1-1h8c0.5,0,1,0.4,1,1V830.6z"/>
<path fill="#FFFFFF" d="M-266.8,873.6v-4l-5,6l5,6v-4c5,0,9,2.7,9,6C-257.8,878.1-261.8,873.6-266.8,873.6z"/>
<path fill="#FFFFFF" d="M-263.9,971.2l-3.5,3.5c-0.1,0.1-0.2,0.1-0.4,0.1s-0.3-0.1-0.4-0.1l-3.5-3.5c-0.1-0.1-0.1-0.2-0.1-0.4
	c0-0.3,0.2-0.5,0.5-0.5h7c0.3,0,0.5,0.2,0.5,0.5C-263.8,971-263.9,971.1-263.9,971.2z"/>
<path fill="#FFFFFF" d="M-254.1,1035.2l-4.8-4.8c0.7-1.1,1.1-2.4,1.1-3.8c0-3.9-3.1-7-7-7s-7,3.1-7,7s3.1,7,7,7
	c1.4,0,2.7-0.4,3.8-1.1l4.8,4.8c0.4,0.4,1,0.4,1.4,0l0.7-0.7C-253.7,1036.2-253.7,1035.6-254.1,1035.2z M-264.8,1031.6
	c-2.8,0-5-2.2-5-5s2.2-5,5-5s5,2.2,5,5S-262,1031.6-264.8,1031.6z"/>
<rect x="-271.8" y="1069.6" fill="#588A70" width="36" height="36"/>
<text transform="matrix(1 0 0 1 -257.9406 1099.5791)" fill="#FFFFFF" font-family="'MyriadPro-Regular'" font-size="36">!</text>
<path fill="#588A70" d="M-263.4,1120.8l-0.7-0.7c-0.3-0.4-0.5-0.4-1.1-0.4h-1.4c-0.5,0-0.8,0.1-1.1,0.4l-0.7,0.7
	c-2,0.4-3.5,1.3-3.5,2v0.1c0,1.2,2.7,2.2,5.9,2.2s5.9-1,5.9-2.2v-0.1C-259.9,1122.1-261.4,1121.1-263.4,1120.8z M-264.2,1122.5h-3.2
	h-1.3c0,0,1.5-1.7,1.6-2c0.1-0.2,0.3-0.2,0.5-0.2h1.6c0.2,0,0.3,0.1,0.5,0.2c0.2,0.2,1.6,2,1.6,2H-264.2z"/>
<path fill="#588A70" d="M-260.7,1124.5l-0.4,3.8l-0.4,3.8c0,0.2-0.5,0.6-1.2,0.9c-0.8,0.3-1.8,0.6-3.1,0.6s-2.3-0.3-3.1-0.6
	c-0.8-0.3-1.2-0.7-1.2-0.9l-0.4-3.8l-0.4-3.8c0.7,0.4,1.5,0.6,2.4,0.8c0.9,0.2,1.9,0.3,2.8,0.3s1.9-0.1,2.8-0.3
	C-262.2,1125.1-261.4,1124.8-260.7,1124.5z"/>
<path fill="#588A70" d="M-256.1,1183.4l-4.3-4.3c0.6-1,1-2.1,1-3.4c0-3.4-2.8-6.2-6.2-6.2s-6.2,2.8-6.2,6.2c0,3.4,2.8,6.2,6.2,6.2
	c1.2,0,2.4-0.4,3.4-1l4.3,4.3c0.3,0.3,0.9,0.3,1.3,0l0.6-0.6C-255.7,1184.4-255.7,1183.8-256.1,1183.4z M-265.6,1180.3
	c-2.5,0-4.4-2-4.4-4.4s2-4.4,4.4-4.4c2.5,0,4.4,2,4.4,4.4S-263.1,1180.3-265.6,1180.3z"/>
<path fill="#FFFFFF" d="M-263.2-272.6c-0.6,0.4-1.1,1.1-1.1,1.4c0,0.2-0.2,0.5-0.4,0.5h-2.6c-0.2,0-0.4-0.4-0.4-0.6v-0.5
	c0-1.3,1.3-2.5,2.3-2.9c0.8-0.4,1.2-0.7,1.2-1.4c0-0.6-0.8-1.2-1.7-1.2c-0.5,0-0.9,0.2-1.2,0.3c-0.3,0.2-0.5,0.4-1.2,1.3
	c-0.1,0.1-0.2,0.2-0.3,0.2c-0.1,0-0.2,0-0.3-0.1l-1.8-1.4c-0.2-0.1-0.2-0.4-0.1-0.6c1.2-2,2.8-2.9,5.1-2.9c2.3,0,5,1.9,5,4.4
	C-260.7-274-262.2-273.2-263.2-272.6z M-264.2-266.8c0,0.2-0.2,0.4-0.4,0.4h-2.6c-0.2,0-0.4-0.2-0.4-0.4v-2.6c0-0.2,0.2-0.4,0.4-0.4
	h2.6c0.2,0,0.4,0.2,0.4,0.4C-264.2-269.5-264.2-266.8-264.2-266.8z"/>
<path fill="#FFFFFF" d="M-263.7-474.1l-5.7-5.7c-0.4-0.4-1-0.4-1.4,0l-0.7,0.7c-0.4,0.4-0.4,1,0,1.4l4.2,4.2l-4.2,4.2
	c-0.4,0.4-0.4,1,0,1.4l0,0l0.7,0.7l0,0c0.4,0.4,1,0.4,1.4,0l5.7-5.7C-263.3-473.1-263.3-473.7-263.7-474.1z"/>
<path fill="#FFFFFF" d="M-258.8-480.1h-1c-0.6,0-1,0.4-1,1v11.3c0,0.6,0.4,1,1,1h1c0.6,0,1-0.4,1-1v-11.3
	C-257.8-479.6-258.2-480.1-258.8-480.1z"/>
<path fill="#FFFFFF" d="M-265.9-424.1l5.7-5.7c0.4-0.4,1-0.4,1.4,0l0.7,0.7c0.4,0.4,0.4,1,0,1.4l-4.2,4.2l4.2,4.2
	c0.4,0.4,0.4,1,0,1.4l0,0l-0.7,0.7l0,0c-0.4,0.4-1,0.4-1.4,0l-5.7-5.7C-266.3-423.1-266.3-423.7-265.9-424.1z"/>
<path fill="#FFFFFF" d="M-270.8-430.1h1c0.6,0,1,0.4,1,1v11.3c0,0.6-0.4,1-1,1h-1c-0.6,0-1-0.4-1-1v-11.3
	C-271.8-429.6-271.4-430.1-270.8-430.1z"/>
<path fill="#FFFFFF" d="M-270.7-524.1l5.7-5.7c0.4-0.4,1-0.4,1.4,0l0.7,0.7c0.4,0.4,0.4,1,0,1.4l-4.2,4.2l4.2,4.2
	c0.4,0.4,0.4,1,0,1.4l0,0l-0.7,0.7l0,0c-0.4,0.4-1,0.4-1.4,0l-5.7-5.7C-271.1-523.1-271.1-523.7-270.7-524.1z"/>
<path fill="#FFFFFF" d="M-259.6-372.2c-1.1,1.1-2.6,1.8-4.2,1.8s-3.2-0.7-4.2-1.8c-2.2,1.4-3.8,3.9-3.8,6.8c0,0.6,0.4,1,1,1h14
	c0.6,0,1-0.4,1-1C-255.8-368.3-257.3-370.8-259.6-372.2z"/>
<circle fill="#FFFFFF" cx="-263.8" cy="-376.4" r="4"/>
<path fill="#FFFFFF" d="M-249.6-322.2c-1.1,1.1-2.6,1.8-4.2,1.8s-3.2-0.7-4.2-1.8c-2.2,1.4-3.8,3.9-3.8,6.8c0,0.6,0.4,1,1,1h14
	c0.6,0,1-0.4,1-1C-245.8-318.3-247.3-320.8-249.6-322.2z"/>
<circle fill="#FFFFFF" cx="-253.8" cy="-326.4" r="4"/>
<path fill="#FFFFFF" d="M-266.6-219.1l-4.2-4.2c-0.4-0.4-0.4-1,0-1.4l0.7-0.7c0.4-0.4,1-0.4,1.4,0l2.8,2.8l7.1-7.1
	c0.4-0.4,1-0.4,1.4,0l0.7,0.7c0.4,0.4,0.4,1,0,1.4l-8.5,8.5C-265.6-218.7-266.2-218.7-266.6-219.1z"/>
<path fill="#FFFFFF" d="M-260.5-171.2l-3.2-3.2l3.2-3.2c0.4-0.4,0.4-1,0-1.4l-0.7-0.7c-0.4-0.4-1-0.4-1.4,0l-3.2,3.2l-3.2-3.2
	c-0.4-0.4-1-0.4-1.4,0l-0.7,0.7c-0.4,0.4-0.4,1,0,1.4l3.2,3.2l-3.2,3.2c-0.4,0.4-0.4,1,0,1.4l0.7,0.7c0.4,0.4,1,0.4,1.4,0l3.2-3.2
	l3.2,3.2c0.4,0.4,1,0.4,1.4,0l0.7-0.7C-260.1-170.2-260.1-170.8-260.5-171.2z"/>
<path fill="#FFFFFF" d="M-258.8-124.9h-4.5v-4.5c0-0.6-0.4-1-1-1h-1c-0.6,0-1,0.4-1,1v4.5h-4.5c-0.6,0-1,0.4-1,1v1c0,0.6,0.4,1,1,1
	h4.5v4.5c0,0.6,0.4,1,1,1h1c0.6,0,1-0.4,1-1v-4.5h4.5c0.6,0,1-0.4,1-1v-1C-257.8-124.5-258.2-124.9-258.8-124.9z"/>
<path fill="#FFFFFF" d="M-263.8-323.4h-2.5v-2.5c0-0.6-0.4-1-1-1l0,0c-0.6,0-1,0.4-1,1v2.5h-2.5c-0.6,0-1,0.4-1,1l0,0
	c0,0.6,0.4,1,1,1h2.5v2.5c0,0.6,0.4,1,1,1l0,0c0.6,0,1-0.4,1-1v-2.5h2.5c0.6,0,1-0.4,1-1l0,0C-262.8-323-263.2-323.4-263.8-323.4z"
	/>
<path fill="#FFFFFF" d="M-262.9-574.1l-5.7-5.7c-0.4-0.4-1-0.4-1.4,0l-0.7,0.7c-0.4,0.4-0.4,1,0,1.4l4.2,4.2l-4.2,4.2
	c-0.4,0.4-0.4,1,0,1.4l0,0l0.7,0.7l0,0c0.4,0.4,1,0.4,1.4,0l5.7-5.7C-262.5-573.1-262.5-573.7-262.9-574.1z"/>
<g>
	<polygon fill="#FFFFFF" points="-262.8,1231.6 -262.8,1233.6 -269.8,1233.6 -269.8,1221.6 -262.8,1221.6 -262.8,1223.6 
		-260.8,1223.6 -260.8,1219.6 -271.8,1219.6 -271.8,1235.6 -260.8,1235.6 -260.8,1231.6 	"/>
	<polygon fill="#FFFFFF" points="-254.8,1227.6 -258.8,1223.6 -258.8,1225.6 -265.8,1225.6 -265.8,1229.6 -258.8,1229.6 
		-258.8,1231.6 	"/>
</g>
<path fill="#588A70" d="M-241.8,1282.9v3.3c0,0.9-0.7,1.7-1.7,1.7h-10v10c0,0.9-0.7,1.7-1.7,1.7h-3.3c-0.9,0-1.7-0.7-1.7-1.7v-10
	h-10c-0.9,0-1.7-0.7-1.7-1.7v-3.3c0-0.9,0.7-1.7,1.7-1.7h10v-10c0-0.9,0.7-1.7,1.7-1.7h3.3c0.9,0,1.7,0.7,1.7,1.7v10h10
	C-242.5,1281.3-241.8,1282-241.8,1282.9z"/>
<path fill="#588A70" d="M-271.8,1332.9"/>
<path fill="#588A70" d="M-241.8,1332.9v3.3c0,0.9-0.7,1.7-1.7,1.7h-10h-6.7h-10c-0.9,0-1.7-0.7-1.7-1.7v-3.3c0-0.9,0.7-1.7,1.7-1.7
	h10h6.7h10C-242.5,1331.3-241.8,1332-241.8,1332.9z"/>
<g>
	<path fill="#FFFFFF" d="M-251,1374.2l-3.5-3.5c-0.4-0.4-1-0.4-1.4,0l-2.8,2.8l5,4.9l2.8-2.8C-250.6,1375.2-250.6,1374.6-251,1374.2
		z"/>
	<path fill="#FFFFFF" d="M-259.5,1374.2l-11.3,11.3v4.9h4.9l11.3-11.3L-259.5,1374.2z M-266.9,1383l7.1-7.1c0.2-0.2,0.5-0.2,0.7,0
		s0.2,0.5,0,0.7l-7.1,7.1l0,0c-0.2,0.2-0.5,0.2-0.7,0C-267.1,1383.5-267.1,1383.2-266.9,1383L-266.9,1383z M-266.2,1389.4h-1.8v-1.8
		h-1.8v-1.8l1.8-1.8l3.5,3.5L-266.2,1389.4z"/>
</g>
</svg>
