<?xml version="1.0" encoding="utf-8"?>
<!-- Generator: Adobe Illustrator 17.1.0, SVG Export Plug-In . SVG Version: 6.00 Build 0)  -->
<!DOCTYPE svg PUBLIC "-//W3C//DTD SVG 1.1//EN" "http://www.w3.org/Graphics/SVG/1.1/DTD/svg11.dtd" [
	<!ENTITY ns_extend "http://ns.adobe.com/Extensibility/1.0/">
	<!ENTITY ns_ai "http://ns.adobe.com/AdobeIllustrator/10.0/">
	<!ENTITY ns_graphs "http://ns.adobe.com/Graphs/1.0/">
	<!ENTITY ns_vars "http://ns.adobe.com/Variables/1.0/">
	<!ENTITY ns_imrep "http://ns.adobe.com/ImageReplacement/1.0/">
	<!ENTITY ns_sfw "http://ns.adobe.com/SaveForWeb/1.0/">
	<!ENTITY ns_custom "http://ns.adobe.com/GenericCustomNamespace/1.0/">
	<!ENTITY ns_adobe_xpath "http://ns.adobe.com/XPath/1.0/">
]>
<svg version="1.1" id="Layer_1" xmlns:x="&ns_extend;" xmlns:i="&ns_ai;" xmlns:graph="&ns_graphs;"
	 xmlns="http://www.w3.org/2000/svg" xmlns:xlink="http://www.w3.org/1999/xlink" x="0px" y="0px" width="50px" height="2000px"
	 viewBox="0 0 50 2000" enable-background="new 0 0 50 2000" xml:space="preserve">
<metadata>
	<sfw  xmlns="&ns_sfw;">
		<slices></slices>
		<sliceSourceBounds  width="36" height="1970.5" x="0" y="-1970.9" bottomLeftOrigin="true"></sliceSourceBounds>
		<optimizationSettings>
			<targetSettings  fileFormat="PNG24Format" targetSettingsID="0">
				<PNG24Format  transparency="true" matteColor="#FFFFFF" noMatteColor="false" filtered="false" interlaced="false">
					</PNG24Format>
			</targetSettings>
		</optimizationSettings>
	</sfw>
</metadata>
<path fill="#000100" d="M7.5,605.2h-7c-0.3,0-0.5-0.2-0.5-0.5c0-0.1,0.1-0.3,0.1-0.4l3.5-3.5c0.1-0.1,0.2-0.1,0.4-0.1
	s0.3,0.1,0.4,0.1l3.5,3.5c0.1,0.1,0.1,0.2,0.1,0.4C8,605,7.8,605.2,7.5,605.2z"/>
<path fill="#000100" d="M7.9,707.9l-3.5,3.5c-0.1,0.1-0.2,0.1-0.4,0.1s-0.3-0.1-0.4-0.1l-3.5-3.5c-0.1-0.1-0.1-0.2-0.1-0.4
	c0-0.3,0.2-0.5,0.5-0.5h7c0.3,0,0.5,0.2,0.5,0.5C8,707.6,7.9,707.8,7.9,707.9z"/>
<path fill="#000100" d="M7.5,705h-7c-0.3,0-0.5-0.2-0.5-0.5c0-0.1,0.1-0.3,0.1-0.4l3.5-3.5c0.1-0.1,0.2-0.1,0.4-0.1s0.3,0.1,0.4,0.1
	l3.5,3.5c0.1,0.1,0.1,0.2,0.1,0.4C8,704.8,7.8,705,7.5,705z"/>
<path fill="#000100" d="M7.9,651.6l-3.5,3.5c-0.1,0.1-0.2,0.1-0.4,0.1s-0.3-0.1-0.4-0.1l-3.5-3.5c-0.1-0.1-0.1-0.2-0.1-0.4
	c0-0.3,0.2-0.5,0.5-0.5h7c0.3,0,0.5,0.2,0.5,0.5C8,651.4,7.9,651.5,7.9,651.6z"/>
<path fill="#A3007A" d="M17,1157h-6v-6c0-0.6-0.4-1-1-1H8c-0.6,0-1,0.4-1,1v6H1c-0.6,0-1,0.4-1,1v2c0,0.6,0.4,1,1,1h6v6
	c0,0.6,0.4,1,1,1h2c0.6,0,1-0.4,1-1v-6h6c0.6,0,1-0.4,1-1v-2C18,1157.4,17.6,1157,17,1157z"/>
<path fill="#7A005C" d="M17,1207h-6v-6c0-0.6-0.4-1-1-1H8c-0.6,0-1,0.4-1,1v6H1c-0.6,0-1,0.4-1,1v2c0,0.6,0.4,1,1,1h6v6
	c0,0.6,0.4,1,1,1h2c0.6,0,1-0.4,1-1v-6h6c0.6,0,1-0.4,1-1v-2C18,1207.4,17.6,1207,17,1207z"/>
<path fill="#A3007A" d="M12.2,1250.9l-4.2,4.2l-4.2-4.2c-0.4-0.4-1-0.4-1.4,0l-1.4,1.4c-0.4,0.4-0.4,1,0,1.4l4.2,4.2l-4.2,4.2
	c-0.4,0.4-0.4,1,0,1.4l1.4,1.4c0.4,0.4,1,0.4,1.4,0l4.2-4.2l4.2,4.2c0.4,0.4,1,0.4,1.4,0l1.4-1.4c0.4-0.4,0.4-1,0-1.4l-4.2-4.2
	l4.2-4.2c0.4-0.4,0.4-1,0-1.4l-1.4-1.4C13.3,1250.5,12.6,1250.5,12.2,1250.9z"/>
<path fill="#7A005C" d="M12.2,1300.9l-4.2,4.2l-4.2-4.2c-0.4-0.4-1-0.4-1.4,0l-1.4,1.4c-0.4,0.4-0.4,1,0,1.4l4.2,4.2l-4.2,4.2
	c-0.4,0.4-0.4,1,0,1.4l1.4,1.4c0.4,0.4,1,0.4,1.4,0l4.2-4.2l4.2,4.2c0.4,0.4,1,0.4,1.4,0l1.4-1.4c0.4-0.4,0.4-1,0-1.4l-4.2-4.2
	l4.2-4.2c0.4-0.4,0.4-1,0-1.4l-1.4-1.4C13.3,1300.5,12.6,1300.5,12.2,1300.9z"/>
<path d="M19.2,551.8l-1.4-1.4c-0.4-0.4-1-0.4-1.4,0l-6.4,6.4l-6.4-6.4c-0.4-0.4-1-0.4-1.4,0l-1.4,1.4c-0.4,0.4-0.4,1,0,1.4l8.5,8.5
	l0,0l0,0c0.4,0.4,1,0.4,1.4,0l8.5-8.5C19.6,552.8,19.6,552.1,19.2,551.8z"/>
<path d="M19.2,510.2l-1.4,1.4c-0.4,0.4-1,0.4-1.4,0l-6.4-6.4l-6.4,6.4c-0.4,0.4-1,0.4-1.4,0l-1.4-1.4c-0.4-0.4-0.4-1,0-1.4l8.5-8.5
	l0,0l0,0c0.4-0.4,1-0.4,1.4,0l8.5,8.5C19.6,509.2,19.6,509.9,19.2,510.2z"/>
<path d="M5.2,1361.3l-4.2-4.2c-0.4-0.4-0.4-1,0-1.4l0.7-0.7c0.4-0.4,1-0.4,1.4,0l2.8,2.8l7.1-7.1c0.4-0.4,1-0.4,1.4,0l0.7,0.7
	c0.4,0.4,0.4,1,0,1.4l-8.5,8.5C6.2,1361.7,5.6,1361.7,5.2,1361.3z"/>
<path fill="#ED1C24" d="M11.3,1509.2l-3.2-3.2l3.2-3.2c0.4-0.4,0.4-1,0-1.4l-0.7-0.7c-0.4-0.4-1-0.4-1.4,0l-3.2,3.2l-3.2-3.2
	c-0.4-0.4-1-0.4-1.4,0l-0.7,0.7c-0.4,0.4-0.4,1,0,1.4l3.2,3.2l-3.2,3.2c-0.4,0.4-0.4,1,0,1.4l0.7,0.7c0.4,0.4,1,0.4,1.4,0l3.2-3.2
	l3.2,3.2c0.4,0.4,1,0.4,1.4,0l0.7-0.7C11.7,1510.2,11.7,1509.6,11.3,1509.2z"/>
<path fill="#A3007A" d="M20.8,754.8l-3.5-3.5c-0.4-0.4-1-0.4-1.4,0l-2.8,2.8l5,4.9l2.8-2.8C21.1,755.8,21.1,755.2,20.8,754.8z"/>
<path fill="#A3007A" d="M12.3,754.8L1,766.1v4.9h4.9l11.3-11.3L12.3,754.8z M4.8,763.6l7.1-7.1c0.2-0.2,0.5-0.2,0.7,0
	c0.2,0.2,0.2,0.5,0,0.7l-7.1,7.1v0c-0.2,0.2-0.5,0.2-0.7,0C4.6,764.1,4.6,763.8,4.8,763.6L4.8,763.6z M5.5,770H3.8v-1.8H2v-1.8
	l1.8-1.8l3.5,3.5L5.5,770z"/>
<path fill="#7A005C" d="M20.8,804.8l-3.5-3.5c-0.4-0.4-1-0.4-1.4,0l-2.8,2.8l5,4.9l2.8-2.8C21.1,805.8,21.1,805.2,20.8,804.8z"/>
<path fill="#7A005C" d="M12.3,804.8L1,816.1v4.9h4.9l11.3-11.3L12.3,804.8z M4.8,813.6l7.1-7.1c0.2-0.2,0.5-0.2,0.7,0
	c0.2,0.2,0.2,0.5,0,0.7l-7.1,7.1v0c-0.2,0.2-0.5,0.2-0.7,0C4.6,814.1,4.6,813.8,4.8,813.6L4.8,813.6z M5.5,820H3.8v-1.8H2v-1.8
	l1.8-1.8l3.5,3.5L5.5,820z"/>
<path fill="#A3007A" d="M17,1053h-2v-1c0-1.1-0.9-2-2-2c-1.1,0-2,0.9-2,2h0v1H7v-1l0,0c0-1.1-0.9-2-2-2s-2,0.9-2,2v1H1
	c-0.6,0-1,0.4-1,1v13c0,0.6,0.4,1,1,1l0,0h16c0.6,0,1-0.4,1-1v-13C18,1053.4,17.6,1053,17,1053z M12,1052c0-0.6,0.4-1,1-1
	c0.6,0,1,0.4,1,1v2c0,0.6-0.4,1-1,1c-0.6,0-1-0.4-1-1V1052z M4,1052c0-0.6,0.4-1,1-1s1,0.4,1,1v2c0,0.6-0.4,1-1,1s-1-0.4-1-1V1052z
	 M16,1066H2v-9h14V1066z"/>
<path fill="#7A005C" d="M17,1103h-2v-1c0-1.1-0.9-2-2-2c-1.1,0-2,0.9-2,2h0v1H7v-1l0,0c0-1.1-0.9-2-2-2s-2,0.9-2,2v1H1
	c-0.6,0-1,0.4-1,1v13c0,0.6,0.4,1,1,1l0,0h16c0.6,0,1-0.4,1-1v-13C18,1103.4,17.6,1103,17,1103z M12,1102c0-0.6,0.4-1,1-1
	c0.6,0,1,0.4,1,1v2c0,0.6-0.4,1-1,1c-0.6,0-1-0.4-1-1V1102z M4,1102c0-0.6,0.4-1,1-1s1,0.4,1,1v2c0,0.6-0.4,1-1,1s-1-0.4-1-1V1102z
	 M16,1116H2v-9h14V1116z"/>
<path fill="#A3007A" d="M20,850H2c-1.1,0-2,0.9-2,2v14c0,1.1,0.9,2,2,2h18c1.1,0,2-0.9,2-2v-14C22,850.9,21.1,850,20,850z M20,852
	l-8.3,8.3c-0.4,0.4-1,0.4-1.4,0L2,852H20z M19,866H3c-0.6,0-1-0.4-1-1v-10.2l7.6,7.6c0.8,0.8,2,0.8,2.8,0l7.6-7.6V865
	C20,865.6,19.6,866,19,866z"/>
<path fill="#7A005C" d="M20,900H2c-1.1,0-2,0.9-2,2v14c0,1.1,0.9,2,2,2h18c1.1,0,2-0.9,2-2v-14C22,900.9,21.1,900,20,900z M20,902
	l-8.3,8.3c-0.4,0.4-1,0.4-1.4,0L2,902H20z M19,916H3c-0.6,0-1-0.4-1-1v-10.2l7.6,7.6c0.8,0.8,2,0.8,2.8,0l7.6-7.6V915
	C20,915.6,19.6,916,19,916z"/>
<path fill="#A3007A" d="M19,957v-2l-5-5H4c-0.6,0-1,0.4-1,1v6c-1.7,0-3,1.3-3,3v5c0,0.6,0.4,1,1,1h2v3c0,0.6,0.4,1,1,1h14
	c0.6,0,1-0.4,1-1v-3h2c0.6,0,1-0.4,1-1v-5C22,958.3,20.7,957,19,957z M17,968H5v-4h12V968z M17,959H5v-7h9v2c0,0.6,0.4,1,1,1h2V959z
	 M18,960c0-0.6,0.4-1,1-1s1,0.4,1,1s-0.4,1-1,1S18,960.6,18,960z"/>
<path fill="#7A005C" d="M19,1007v-2l-5-5H4c-0.6,0-1,0.4-1,1v6c-1.7,0-3,1.3-3,3v5c0,0.6,0.4,1,1,1h2v3c0,0.6,0.4,1,1,1h14
	c0.6,0,1-0.4,1-1v-3h2c0.6,0,1-0.4,1-1v-5C22,1008.3,20.7,1007,19,1007z M17,1018H5v-4h12V1018z M17,1009H5v-7h9v2c0,0.6,0.4,1,1,1
	h2V1009z M18,1010c0-0.6,0.4-1,1-1s1,0.4,1,1s-0.4,1-1,1S18,1010.6,18,1010z"/>
<path fill="#FFFFFF" d="M13.6,1407.1l-2.3-6.1c-0.2-0.5-0.8-0.9-1.4-0.9H8v4h3l-4,4l-4-4h3v-4H4c-0.5,0-1.2,0.4-1.4,0.9l-2.3,6.1
	c-0.2,0.5-0.4,1.4-0.4,1.9v4c0,0.5,0.5,1,1,1h12c0.5,0,1-0.5,1-1v-4C14,1408.5,13.8,1407.6,13.6,1407.1z M12,1411c0,0.5-0.5,1-1,1H3
	c-0.5,0-1-0.5-1-1v-1c0-0.5,0.5-1,1-1h8c0.5,0,1,0.5,1,1V1411z"/>
<path fill="#FFFFFF" d="M5,1454v-4l-5,6l5,6v-4c5,0,9,2.7,9,6C14,1458.5,10,1454,5,1454z"/>
<path fill="#FFFFFF" d="M7.9,1551.6l-3.5,3.5c-0.1,0.1-0.2,0.1-0.4,0.1s-0.3-0.1-0.4-0.1l-3.5-3.5c-0.1-0.1-0.1-0.2-0.1-0.4
	c0-0.3,0.2-0.5,0.5-0.5h7c0.3,0,0.5,0.2,0.5,0.5C8,1551.4,7.9,1551.5,7.9,1551.6z"/>
<path fill="#FFFFFF" d="M17.7,1615.6l-4.8-4.8c0.7-1.1,1.1-2.4,1.1-3.8c0-3.9-3.1-7-7-7c-3.9,0-7,3.1-7,7s3.1,7,7,7
	c1.4,0,2.7-0.4,3.8-1.1l4.8,4.8c0.4,0.4,1,0.4,1.4,0l0.7-0.7C18.1,1616.6,18.1,1616,17.7,1615.6z M7,1612c-2.8,0-5-2.2-5-5
	s2.2-5,5-5s5,2.2,5,5S9.8,1612,7,1612z"/>
<rect y="1650" fill="#A3007A" width="36" height="36"/>
<text transform="matrix(1 0 0 1 13.8594 1679.999)" fill="#FFFFFF" font-family="'MyriadPro-Regular'" font-size="36">!</text>
<path fill="#A3007A" d="M8.4,1701.2l-0.7-0.7c-0.3-0.4-0.5-0.4-1.1-0.4H5.2c-0.5,0-0.8,0.1-1.1,0.4l-0.7,0.7c-2,0.4-3.5,1.3-3.5,2
	v0.1c0,1.2,2.7,2.2,5.9,2.2s5.9-1,5.9-2.2v-0.1C11.9,1702.5,10.4,1701.5,8.4,1701.2z M7.6,1702.9H4.3H3c0,0,1.5-1.7,1.6-2
	c0.1-0.2,0.3-0.2,0.5-0.2h1.6c0.2,0,0.3,0.1,0.5,0.2c0.2,0.2,1.6,2,1.6,2H7.6z"/>
<path fill="#A3007A" d="M11.1,1704.9l-0.4,3.8l-0.4,3.8c0,0.2-0.5,0.6-1.2,0.9c-0.8,0.3-1.8,0.6-3.1,0.6c-1.3,0-2.3-0.3-3.1-0.6
	c-0.8-0.3-1.2-0.7-1.2-0.9l-0.4-3.8l-0.4-3.8c0.7,0.4,1.5,0.6,2.4,0.8c0.9,0.2,1.9,0.3,2.8,0.3c0.9,0,1.9-0.1,2.8-0.3
	C9.6,1705.5,10.4,1705.2,11.1,1704.9z"/>
<path fill="#A3007A" d="M15.7,1763.9l-4.3-4.3c0.6-1,1-2.1,1-3.4c0-3.4-2.8-6.2-6.2-6.2c-3.4,0-6.2,2.8-6.2,6.2
	c0,3.4,2.8,6.2,6.2,6.2c1.2,0,2.4-0.4,3.4-1l4.3,4.3c0.3,0.3,0.9,0.3,1.3,0l0.6-0.6C16.1,1764.8,16.1,1764.2,15.7,1763.9z
	 M6.2,1760.7c-2.5,0-4.4-2-4.4-4.4s2-4.4,4.4-4.4s4.4,2,4.4,4.4S8.7,1760.7,6.2,1760.7z"/>
<path fill="#FFFFFF" d="M8.6,307.8c-0.6,0.4-1,1.1-1,1.4c0,0.2-0.2,0.5-0.4,0.5H4.5c-0.2,0-0.4-0.4-0.4-0.6v-0.5
	c0-1.3,1.3-2.5,2.3-2.9c0.8-0.4,1.2-0.7,1.2-1.4c0-0.6-0.8-1.2-1.7-1.2c-0.5,0-0.9,0.2-1.2,0.3c-0.3,0.2-0.5,0.4-1.2,1.3
	c-0.1,0.1-0.2,0.2-0.3,0.2c-0.1,0-0.2,0-0.3-0.1l-1.8-1.4c-0.2-0.1-0.2-0.4-0.1-0.6c1.2-2,2.8-2.9,5.1-2.9c2.3,0,5,1.9,5,4.4
	C11.1,306.5,9.6,307.3,8.6,307.8z M7.6,313.6c0,0.2-0.2,0.4-0.4,0.4H4.5c-0.2,0-0.4-0.2-0.4-0.4v-2.6c0-0.2,0.2-0.4,0.4-0.4h2.6
	c0.2,0,0.4,0.2,0.4,0.4V313.6z"/>
<path fill="#FFFFFF" d="M8.1,106.3l-5.7-5.7c-0.4-0.4-1-0.4-1.4,0l-0.7,0.7c-0.4,0.4-0.4,1,0,1.4l4.2,4.2l-4.2,4.2
	c-0.4,0.4-0.4,1,0,1.4l0,0l0.7,0.7l0,0c0.4,0.4,1,0.4,1.4,0l5.7-5.7C8.5,107.3,8.5,106.7,8.1,106.3z"/>
<path fill="#FFFFFF" d="M13,100.3h-1c-0.6,0-1,0.4-1,1v11.3c0,0.6,0.4,1,1,1h1c0.6,0,1-0.4,1-1v-11.3C14,100.8,13.6,100.3,13,100.3z
	"/>
<path fill="#FFFFFF" d="M5.9,156.3l5.7-5.7c0.4-0.4,1-0.4,1.4,0l0.7,0.7c0.4,0.4,0.4,1,0,1.4L9.5,157l4.2,4.2c0.4,0.4,0.4,1,0,1.4
	l0,0l-0.7,0.7l0,0c-0.4,0.4-1,0.4-1.4,0l-5.7-5.7C5.5,157.3,5.5,156.7,5.9,156.3z"/>
<path fill="#FFFFFF" d="M1,150.3h1c0.6,0,1,0.4,1,1v11.3c0,0.6-0.4,1-1,1H1c-0.6,0-1-0.4-1-1v-11.3C0,150.8,0.4,150.3,1,150.3z"/>
<path fill="#FFFFFF" d="M1.1,56.3l5.7-5.7c0.4-0.4,1-0.4,1.4,0l0.7,0.7c0.4,0.4,0.4,1,0,1.4L4.6,57l4.2,4.2c0.4,0.4,0.4,1,0,1.4l0,0
	l-0.7,0.7v0c-0.4,0.4-1,0.4-1.4,0l-5.7-5.7C0.7,57.3,0.7,56.7,1.1,56.3z"/>
<path fill="#FFFFFF" d="M12.2,208.2c-1.1,1.1-2.6,1.8-4.2,1.8c-1.7,0-3.2-0.7-4.2-1.8C1.5,209.7,0,212.1,0,215c0,0.6,0.4,1,1,1h14
	c0.6,0,1-0.4,1-1C16,212.1,14.5,209.7,12.2,208.2z"/>
<circle fill="#FFFFFF" cx="8" cy="204" r="4"/>
<path fill="#FFFFFF" d="M22.2,258.2c-1.1,1.1-2.6,1.8-4.2,1.8c-1.7,0-3.2-0.7-4.2-1.8c-2.2,1.4-3.8,3.9-3.8,6.8c0,0.6,0.4,1,1,1h14
	c0.6,0,1-0.4,1-1C26,262.1,24.5,259.7,22.2,258.2z"/>
<circle fill="#FFFFFF" cx="18" cy="254" r="4"/>
<path fill="#FFFFFF" d="M5.2,361.3l-4.2-4.2c-0.4-0.4-0.4-1,0-1.4l0.7-0.7c0.4-0.4,1-0.4,1.4,0l2.8,2.8l7.1-7.1c0.4-0.4,1-0.4,1.4,0
	l0.7,0.7c0.4,0.4,0.4,1,0,1.4l-8.5,8.5C6.2,361.7,5.6,361.7,5.2,361.3z"/>
<path fill="#FFFFFF" d="M11.3,409.2L8.1,406l3.2-3.2c0.4-0.4,0.4-1,0-1.4l-0.7-0.7c-0.4-0.4-1-0.4-1.4,0L6,403.9l-3.2-3.2
	c-0.4-0.4-1-0.4-1.4,0l-0.7,0.7c-0.4,0.4-0.4,1,0,1.4l3.2,3.2l-3.2,3.2c-0.4,0.4-0.4,1,0,1.4l0.7,0.7c0.4,0.4,1,0.4,1.4,0l3.2-3.2
	l3.2,3.2c0.4,0.4,1,0.4,1.4,0l0.7-0.7C11.7,410.2,11.7,409.6,11.3,409.2z"/>
<path fill="#FFFFFF" d="M13,455.5H8.5l0-4.5c0-0.6-0.4-1-1-1h-1c-0.6,0-1,0.4-1,1v4.5H1c-0.6,0-1,0.4-1,1l0,1c0,0.6,0.4,1,1,1l4.5,0
	v4.5c0,0.6,0.4,1,1,1h1c0.6,0,1-0.4,1-1l0-4.5l4.5,0c0.6,0,1-0.4,1-1l0-1C14,455.9,13.6,455.5,13,455.5z"/>
<path fill="#FFFFFF" d="M8,257H5.5l0-2.5c0-0.6-0.4-1-1-1h0c-0.6,0-1,0.4-1,1v2.5H1c-0.6,0-1,0.4-1,1l0,0c0,0.6,0.4,1,1,1l2.5,0v2.5
	c0,0.6,0.4,1,1,1l0,0c0.6,0,1-0.4,1-1l0-2.5l2.5,0c0.6,0,1-0.4,1-1l0,0C9,257.4,8.6,257,8,257z"/>
<path fill="#FFFFFF" d="M8.9,6.3L3.2,0.6c-0.4-0.4-1-0.4-1.4,0L1.1,1.3c-0.4,0.4-0.4,1,0,1.4L5.4,7l-4.2,4.2c-0.4,0.4-0.4,1,0,1.4
	l0,0l0.7,0.7v0c0.4,0.4,1,0.4,1.4,0l5.7-5.7C9.3,7.3,9.3,6.7,8.9,6.3z"/>
<g>
	<polygon fill="#FFFFFF" points="9,1812 9,1814 2,1814 2,1802 9,1802 9,1804 11,1804 11,1800 0,1800 0,1816 11,1816 11,1812 	"/>
	<polygon fill="#FFFFFF" points="17,1808 13,1804 13,1806 6,1806 6,1810 13,1810 13,1812 	"/>
</g>
<path fill="#A3007A" d="M30,1863.3v3.3c0,0.9-0.7,1.7-1.7,1.7h-10v10c0,0.9-0.7,1.7-1.7,1.7h-3.3c-0.9,0-1.7-0.7-1.7-1.7v-10h-10
	c-0.9,0-1.7-0.7-1.7-1.7v-3.3c0-0.9,0.7-1.7,1.7-1.7h10v-10c0-0.9,0.7-1.7,1.7-1.7h3.3c0.9,0,1.7,0.7,1.7,1.7v10h10
	C29.3,1861.7,30,1862.4,30,1863.3z"/>
<path fill="#A3007A" d="M0,1913.3"/>
<path fill="#A3007A" d="M30,1913.3v3.3c0,0.9-0.7,1.7-1.7,1.7h-10h-6.7h-10c-0.9,0-1.7-0.7-1.7-1.7v-3.3c0-0.9,0.7-1.7,1.7-1.7h10
	h6.7h10C29.3,1911.7,30,1912.4,30,1913.3z"/>
<g>
	<path fill="#FFFFFF" d="M20.8,1954.6l-3.5-3.5c-0.4-0.4-1-0.4-1.4,0l-2.8,2.8l5,4.9l2.8-2.8C21.2,1955.6,21.2,1955,20.8,1954.6z"/>
	<path fill="#FFFFFF" d="M12.3,1954.6L1,1965.9v4.9h4.9l11.3-11.3L12.3,1954.6z M4.9,1963.4l7.1-7.1c0.2-0.2,0.5-0.2,0.7,0
		c0.2,0.2,0.2,0.5,0,0.7l-7.1,7.1v0c-0.2,0.2-0.5,0.2-0.7,0C4.7,1963.9,4.7,1963.6,4.9,1963.4L4.9,1963.4z M5.6,1969.8H3.8v-1.8H2.1
		v-1.8l1.8-1.8l3.5,3.5L5.6,1969.8z"/>
</g>
</svg>
