<?xml version="1.0" standalone="no"?>
<!DOCTYPE svg PUBLIC "-//W3C//DTD SVG 1.1//EN" "http://www.w3.org/Graphics/SVG/1.1/DTD/svg11.dtd">
<svg width="100%" height="100%" viewBox="0 0 50 2000" version="1.1" xmlns="http://www.w3.org/2000/svg" xmlns:xlink="http://www.w3.org/1999/xlink" xml:space="preserve" style="fill-rule:evenodd;clip-rule:evenodd;stroke-linejoin:round;stroke-miterlimit:1.41421;">
    <g transform="matrix(1,0,0,1,272,580.1)">
        <path d="M-264.3,24.8L-271.3,24.8C-271.6,24.8 -271.8,24.6 -271.8,24.3C-271.8,24.2 -271.7,24 -271.7,23.9L-268.2,20.4C-268.1,20.3 -268,20.3 -267.8,20.3C-267.6,20.3 -267.5,20.4 -267.4,20.4L-263.9,23.9C-263.8,24 -263.8,24.1 -263.8,24.3C-263.8,24.6 -264,24.8 -264.3,24.8Z" style="fill:rgb(0,1,0);fill-rule:nonzero;"/>
    </g>
    <g transform="matrix(1,0,0,1,272,580.1)">
        <path d="M-263.9,127.4L-267.4,130.9C-267.5,131 -267.6,131 -267.8,131C-268,131 -268.1,130.9 -268.2,130.9L-271.7,127.4C-271.8,127.3 -271.8,127.2 -271.8,127C-271.8,126.7 -271.6,126.5 -271.3,126.5L-264.3,126.5C-264,126.5 -263.8,126.7 -263.8,127C-263.8,127.2 -263.9,127.3 -263.9,127.4Z" style="fill:rgb(0,1,0);fill-rule:nonzero;"/>
    </g>
    <g transform="matrix(1,0,0,1,272,580.1)">
        <path d="M-264.3,124.6L-271.3,124.6C-271.6,124.6 -271.8,124.4 -271.8,124.1C-271.8,124 -271.7,123.8 -271.7,123.7L-268.2,120.2C-268.1,120.1 -268,120.1 -267.8,120.1C-267.6,120.1 -267.5,120.2 -267.4,120.2L-263.9,123.7C-263.8,123.8 -263.8,123.9 -263.8,124.1C-263.8,124.4 -264,124.6 -264.3,124.6Z" style="fill:rgb(0,1,0);fill-rule:nonzero;"/>
    </g>
    <g transform="matrix(1,0,0,1,272,580.1)">
        <path d="M-263.9,71.2L-267.4,74.7C-267.5,74.8 -267.6,74.8 -267.8,74.8C-268,74.8 -268.1,74.7 -268.2,74.7L-271.7,71.2C-271.8,71.1 -271.8,71 -271.8,70.8C-271.8,70.5 -271.6,70.3 -271.3,70.3L-264.3,70.3C-264,70.3 -263.8,70.5 -263.8,70.8C-263.8,71 -263.9,71.1 -263.9,71.2Z" style="fill:rgb(0,1,0);fill-rule:nonzero;"/>
    </g>
    <g transform="matrix(1,0,0,1,272,580.1)">
        <path d="M-254.8,576.6L-260.8,576.6L-260.8,570.6C-260.8,570 -261.2,569.6 -261.8,569.6L-263.8,569.6C-264.4,569.6 -264.8,570 -264.8,570.6L-264.8,576.6L-270.8,576.6C-271.4,576.6 -271.8,577 -271.8,577.6L-271.8,579.6C-271.8,580.2 -271.4,580.6 -270.8,580.6L-264.8,580.6L-264.8,586.6C-264.8,587.2 -264.4,587.6 -263.8,587.6L-261.8,587.6C-261.2,587.6 -260.8,587.2 -260.8,586.6L-260.8,580.6L-254.8,580.6C-254.2,580.6 -253.8,580.2 -253.8,579.6L-253.8,577.6C-253.8,577 -254.2,576.6 -254.8,576.6Z" style="fill:rgb(51,133,148);fill-rule:nonzero;"/>
    </g>
    <g transform="matrix(1,0,0,1,272,580.1)">
        <path d="M-254.8,626.6L-260.8,626.6L-260.8,620.6C-260.8,620 -261.2,619.6 -261.8,619.6L-263.8,619.6C-264.4,619.6 -264.8,620 -264.8,620.6L-264.8,626.6L-270.8,626.6C-271.4,626.6 -271.8,627 -271.8,627.6L-271.8,629.6C-271.8,630.2 -271.4,630.6 -270.8,630.6L-264.8,630.6L-264.8,636.6C-264.8,637.2 -264.4,637.6 -263.8,637.6L-261.8,637.6C-261.2,637.6 -260.8,637.2 -260.8,636.6L-260.8,630.6L-254.8,630.6C-254.2,630.6 -253.8,630.2 -253.8,629.6L-253.8,627.6C-253.8,627 -254.2,626.6 -254.8,626.6Z" style="fill:rgb(0,103,120);fill-rule:nonzero;"/>
    </g>
    <g transform="matrix(1,0,0,1,272,580.1)">
        <path d="M-259.6,670.5L-263.8,674.7L-268,670.5C-268.4,670.1 -269,670.1 -269.4,670.5L-270.8,671.9C-271.2,672.3 -271.2,672.9 -270.8,673.3L-266.6,677.5L-270.8,681.7C-271.2,682.1 -271.2,682.7 -270.8,683.1L-269.4,684.5C-269,684.9 -268.4,684.9 -268,684.5L-263.8,680.3L-259.6,684.5C-259.2,684.9 -258.6,684.9 -258.2,684.5L-256.8,683.1C-256.4,682.7 -256.4,682.1 -256.8,681.7L-261,677.5L-256.8,673.3C-256.4,672.9 -256.4,672.3 -256.8,671.9L-258.2,670.5C-258.5,670.1 -259.2,670.1 -259.6,670.5Z" style="fill:rgb(51,133,148);fill-rule:nonzero;"/>
    </g>
    <g transform="matrix(1,0,0,1,272,580.1)">
        <path d="M-259.6,720.5L-263.8,724.7L-268,720.5C-268.4,720.1 -269,720.1 -269.4,720.5L-270.8,721.9C-271.2,722.3 -271.2,722.9 -270.8,723.3L-266.6,727.5L-270.8,731.7C-271.2,732.1 -271.2,732.7 -270.8,733.1L-269.4,734.5C-269,734.9 -268.4,734.9 -268,734.5L-263.8,730.3L-259.6,734.5C-259.2,734.9 -258.6,734.9 -258.2,734.5L-256.8,733.1C-256.4,732.7 -256.4,732.1 -256.8,731.7L-261,727.5L-256.8,723.3C-256.4,722.9 -256.4,722.3 -256.8,721.9L-258.2,720.5C-258.5,720.1 -259.2,720.1 -259.6,720.5Z" style="fill:rgb(0,103,120);fill-rule:nonzero;"/>
    </g>
    <g transform="matrix(1,0,0,1,272,580.1)">
        <path d="M-252.6,-28.7L-254,-30.1C-254.4,-30.5 -255,-30.5 -255.4,-30.1L-261.8,-23.7L-268.2,-30.1C-268.6,-30.5 -269.2,-30.5 -269.6,-30.1L-271,-28.7C-271.4,-28.3 -271.4,-27.7 -271,-27.3L-262.5,-18.8C-262.1,-18.4 -261.5,-18.4 -261.1,-18.8L-252.6,-27.3C-252.2,-27.6 -252.2,-28.3 -252.6,-28.7Z" style="fill:black;fill-rule:nonzero;"/>
    </g>
    <g transform="matrix(1,0,0,1,272,580.1)">
        <path d="M-252.6,-70.2L-254,-68.8C-254.4,-68.4 -255,-68.4 -255.4,-68.8L-261.8,-75.2L-268.2,-68.8C-268.6,-68.4 -269.2,-68.4 -269.6,-68.8L-271,-70.2C-271.4,-70.6 -271.4,-71.2 -271,-71.6L-262.5,-80.1C-262.1,-80.5 -261.5,-80.5 -261.1,-80.1L-252.6,-71.6C-252.2,-71.2 -252.2,-70.6 -252.6,-70.2Z" style="fill:black;fill-rule:nonzero;"/>
    </g>
    <g transform="matrix(1,0,0,1,272,580.1)">
        <path d="M-266.6,780.9L-270.8,776.7C-271.2,776.3 -271.2,775.7 -270.8,775.3L-270.1,774.6C-269.7,774.2 -269.1,774.2 -268.7,774.6L-265.9,777.4L-258.8,770.3C-258.4,769.9 -257.8,769.9 -257.4,770.3L-256.7,771C-256.3,771.4 -256.3,772 -256.7,772.4L-265.2,780.9C-265.6,781.3 -266.2,781.3 -266.6,780.9Z" style="fill:black;fill-rule:nonzero;"/>
    </g>
    <g transform="matrix(1,0,0,1,272,580.1)">
        <path d="M-260.5,928.8L-263.7,925.6L-260.5,922.4C-260.1,922 -260.1,921.4 -260.5,921L-261.2,920.3C-261.6,919.9 -262.2,919.9 -262.6,920.3L-265.8,923.5L-269,920.3C-269.4,919.9 -270,919.9 -270.4,920.3L-271.1,921C-271.5,921.4 -271.5,922 -271.1,922.4L-267.9,925.6L-271.1,928.8C-271.5,929.2 -271.5,929.8 -271.1,930.2L-270.4,930.9C-270,931.3 -269.4,931.3 -269,930.9L-265.8,927.7L-262.6,930.9C-262.2,931.3 -261.6,931.3 -261.2,930.9L-260.5,930.2C-260.1,929.8 -260.1,929.2 -260.5,928.8Z" style="fill:rgb(237,28,36);fill-rule:nonzero;"/>
    </g>
    <g transform="matrix(1,0,0,1,272,580.1)">
        <path d="M-251,174.4L-254.5,170.9C-254.9,170.5 -255.5,170.5 -255.9,170.9L-258.7,173.7L-253.8,178.6L-251,175.8C-250.7,175.4 -250.7,174.8 -251,174.4Z" style="fill:rgb(51,133,148);fill-rule:nonzero;"/>
    </g>
    <g transform="matrix(1,0,0,1,272,580.1)">
        <path d="M-259.5,174.4L-270.8,185.7L-270.8,190.6L-265.9,190.6L-254.6,179.3L-259.5,174.4ZM-267,183.2L-259.9,176.1C-259.7,175.9 -259.4,175.9 -259.2,176.1C-259,176.3 -259,176.6 -259.2,176.8L-266.3,183.9C-266.5,184.1 -266.8,184.1 -267,183.9C-267.2,183.7 -267.2,183.4 -267,183.2ZM-266.3,189.6L-268.1,189.6L-268.1,187.8L-269.9,187.8L-269.9,186L-268.1,184.2L-264.6,187.7L-266.3,189.6Z" style="fill:rgb(51,133,148);fill-rule:nonzero;"/>
    </g>
    <g transform="matrix(1,0,0,1,272,580.1)">
        <path d="M-251,224.4L-254.5,220.9C-254.9,220.5 -255.5,220.5 -255.9,220.9L-258.7,223.7L-253.8,228.6L-251,225.8C-250.7,225.4 -250.7,224.8 -251,224.4Z" style="fill:rgb(0,103,120);fill-rule:nonzero;"/>
    </g>
    <g transform="matrix(1,0,0,1,272,580.1)">
        <path d="M-259.5,224.4L-270.8,235.7L-270.8,240.6L-265.9,240.6L-254.6,229.3L-259.5,224.4ZM-267,233.2L-259.9,226.1C-259.7,225.9 -259.4,225.9 -259.2,226.1C-259,226.3 -259,226.6 -259.2,226.8L-266.3,233.9C-266.5,234.1 -266.8,234.1 -267,233.9C-267.2,233.7 -267.2,233.4 -267,233.2ZM-266.3,239.6L-268.1,239.6L-268.1,237.8L-269.9,237.8L-269.9,236L-268.1,234.2L-264.6,237.7L-266.3,239.6Z" style="fill:rgb(0,103,120);fill-rule:nonzero;"/>
    </g>
    <g transform="matrix(1,0,0,1,272,580.1)">
        <path d="M-254.8,472.6L-256.8,472.6L-256.8,471.6C-256.8,470.5 -257.7,469.6 -258.8,469.6C-259.9,469.6 -260.8,470.5 -260.8,471.6L-260.8,472.6L-264.8,472.6L-264.8,471.6C-264.8,470.5 -265.7,469.6 -266.8,469.6C-267.9,469.6 -268.8,470.5 -268.8,471.6L-268.8,472.6L-270.8,472.6C-271.4,472.6 -271.8,473 -271.8,473.6L-271.8,486.6C-271.8,487.2 -271.4,487.6 -270.8,487.6L-254.8,487.6C-254.2,487.6 -253.8,487.2 -253.8,486.6L-253.8,473.6C-253.8,473 -254.2,472.6 -254.8,472.6ZM-259.8,471.6C-259.8,471 -259.4,470.6 -258.8,470.6C-258.2,470.6 -257.8,471 -257.8,471.6L-257.8,473.6C-257.8,474.2 -258.2,474.6 -258.8,474.6C-259.4,474.6 -259.8,474.2 -259.8,473.6L-259.8,471.6ZM-267.8,471.6C-267.8,471 -267.4,470.6 -266.8,470.6C-266.2,470.6 -265.8,471 -265.8,471.6L-265.8,473.6C-265.8,474.2 -266.2,474.6 -266.8,474.6C-267.4,474.6 -267.8,474.2 -267.8,473.6L-267.8,471.6ZM-255.8,485.6L-269.8,485.6L-269.8,476.6L-255.8,476.6L-255.8,485.6Z" style="fill:white;fill-rule:nonzero;"/>
    </g>
    <g transform="matrix(1,0,0,1,272,580.1)">
        <path d="M-254.8,522.6L-256.8,522.6L-256.8,521.6C-256.8,520.5 -257.7,519.6 -258.8,519.6C-259.9,519.6 -260.8,520.5 -260.8,521.6L-260.8,522.6L-264.8,522.6L-264.8,521.6C-264.8,520.5 -265.7,519.6 -266.8,519.6C-267.9,519.6 -268.8,520.5 -268.8,521.6L-268.8,522.6L-270.8,522.6C-271.4,522.6 -271.8,523 -271.8,523.6L-271.8,536.6C-271.8,537.2 -271.4,537.6 -270.8,537.6L-254.8,537.6C-254.2,537.6 -253.8,537.2 -253.8,536.6L-253.8,523.6C-253.8,523 -254.2,522.6 -254.8,522.6ZM-259.8,521.6C-259.8,521 -259.4,520.6 -258.8,520.6C-258.2,520.6 -257.8,521 -257.8,521.6L-257.8,523.6C-257.8,524.2 -258.2,524.6 -258.8,524.6C-259.4,524.6 -259.8,524.2 -259.8,523.6L-259.8,521.6ZM-267.8,521.6C-267.8,521 -267.4,520.6 -266.8,520.6C-266.2,520.6 -265.8,521 -265.8,521.6L-265.8,523.6C-265.8,524.2 -266.2,524.6 -266.8,524.6C-267.4,524.6 -267.8,524.2 -267.8,523.6L-267.8,521.6ZM-255.8,535.6L-269.8,535.6L-269.8,526.6L-255.8,526.6L-255.8,535.6Z" style="fill:rgb(230,230,230);fill-rule:nonzero;"/>
    </g>
    <g transform="matrix(1,0,0,1,272,580.1)">
        <path d="M-251.8,269.6L-269.8,269.6C-270.9,269.6 -271.8,270.5 -271.8,271.6L-271.8,285.6C-271.8,286.7 -270.9,287.6 -269.8,287.6L-251.8,287.6C-250.7,287.6 -249.8,286.7 -249.8,285.6L-249.8,271.6C-249.8,270.5 -250.7,269.6 -251.8,269.6ZM-251.8,271.6L-260.1,279.9C-260.5,280.3 -261.1,280.3 -261.5,279.9L-269.8,271.6L-251.8,271.6ZM-252.8,285.6L-268.8,285.6C-269.4,285.6 -269.8,285.2 -269.8,284.6L-269.8,274.4L-262.2,282C-261.4,282.8 -260.2,282.8 -259.4,282L-251.8,274.4L-251.8,284.6C-251.8,285.1 -252.2,285.6 -252.8,285.6Z" style="fill:rgb(51,133,148);fill-rule:nonzero;"/>
    </g>
    <g transform="matrix(1,0,0,1,272,580.1)">
        <path d="M-251.8,319.6L-269.8,319.6C-270.9,319.6 -271.8,320.5 -271.8,321.6L-271.8,335.6C-271.8,336.7 -270.9,337.6 -269.8,337.6L-251.8,337.6C-250.7,337.6 -249.8,336.7 -249.8,335.6L-249.8,321.6C-249.8,320.5 -250.7,319.6 -251.8,319.6ZM-251.8,321.6L-260.1,329.9C-260.5,330.3 -261.1,330.3 -261.5,329.9L-269.8,321.6L-251.8,321.6ZM-252.8,335.6L-268.8,335.6C-269.4,335.6 -269.8,335.2 -269.8,334.6L-269.8,324.4L-262.2,332C-261.4,332.8 -260.2,332.8 -259.4,332L-251.8,324.4L-251.8,334.6C-251.8,335.1 -252.2,335.6 -252.8,335.6Z" style="fill:rgb(0,103,120);fill-rule:nonzero;"/>
    </g>
    <g transform="matrix(1,0,0,1,272,580.1)">
        <path d="M-252.8,376.6L-252.8,374.6L-257.8,369.6L-267.8,369.6C-268.4,369.6 -268.8,370 -268.8,370.6L-268.8,376.6C-270.5,376.6 -271.8,377.9 -271.8,379.6L-271.8,384.6C-271.8,385.2 -271.4,385.6 -270.8,385.6L-268.8,385.6L-268.8,388.6C-268.8,389.2 -268.4,389.6 -267.8,389.6L-253.8,389.6C-253.2,389.6 -252.8,389.2 -252.8,388.6L-252.8,385.6L-250.8,385.6C-250.2,385.6 -249.8,385.2 -249.8,384.6L-249.8,379.6C-249.8,377.9 -251.1,376.6 -252.8,376.6ZM-254.8,387.6L-266.8,387.6L-266.8,383.6L-254.8,383.6L-254.8,387.6ZM-254.8,378.6L-266.8,378.6L-266.8,371.6L-257.8,371.6L-257.8,373.6C-257.8,374.2 -257.4,374.6 -256.8,374.6L-254.8,374.6L-254.8,378.6ZM-253.8,379.6C-253.8,379 -253.4,378.6 -252.8,378.6C-252.2,378.6 -251.8,379 -251.8,379.6C-251.8,380.2 -252.2,380.6 -252.8,380.6C-253.4,380.6 -253.8,380.1 -253.8,379.6Z" style="fill:rgb(51,133,148);fill-rule:nonzero;"/>
    </g>
    <g transform="matrix(1,0,0,1,272,580.1)">
        <path d="M-252.8,426.6L-252.8,424.6L-257.8,419.6L-267.8,419.6C-268.4,419.6 -268.8,420 -268.8,420.6L-268.8,426.6C-270.5,426.6 -271.8,427.9 -271.8,429.6L-271.8,434.6C-271.8,435.2 -271.4,435.6 -270.8,435.6L-268.8,435.6L-268.8,438.6C-268.8,439.2 -268.4,439.6 -267.8,439.6L-253.8,439.6C-253.2,439.6 -252.8,439.2 -252.8,438.6L-252.8,435.6L-250.8,435.6C-250.2,435.6 -249.8,435.2 -249.8,434.6L-249.8,429.6C-249.8,427.9 -251.1,426.6 -252.8,426.6ZM-254.8,437.6L-266.8,437.6L-266.8,433.6L-254.8,433.6L-254.8,437.6ZM-254.8,428.6L-266.8,428.6L-266.8,421.6L-257.8,421.6L-257.8,423.6C-257.8,424.2 -257.4,424.6 -256.8,424.6L-254.8,424.6L-254.8,428.6ZM-253.8,429.6C-253.8,429 -253.4,428.6 -252.8,428.6C-252.2,428.6 -251.8,429 -251.8,429.6C-251.8,430.2 -252.2,430.6 -252.8,430.6C-253.4,430.6 -253.8,430.1 -253.8,429.6Z" style="fill:rgb(0,103,120);fill-rule:nonzero;"/>
    </g>
    <g transform="matrix(1,0,0,1,272,580.1)">
        <path d="M-258.2,826.7L-260.5,820.6C-260.7,820.1 -261.3,819.7 -261.9,819.7L-263.9,819.7L-263.9,823.7L-260.9,823.7L-264.9,827.7L-268.9,823.7L-265.9,823.7L-265.9,819.7L-267.9,819.7C-268.4,819.7 -269.1,820.1 -269.3,820.6L-271.6,826.7C-271.8,827.2 -272,828.1 -272,828.6L-272,832.6C-272,833.2 -271.5,833.6 -271,833.6L-259,833.6C-258.5,833.6 -258,833.2 -258,832.6L-258,828.6C-257.8,828 -258,827.2 -258.2,826.7ZM-259.8,830.6C-259.8,831.2 -260.3,831.6 -260.8,831.6L-268.8,831.6C-269.3,831.6 -269.8,831.2 -269.8,830.6L-269.8,829.6C-269.8,829 -269.3,828.6 -268.8,828.6L-260.8,828.6C-260.3,828.6 -259.8,829 -259.8,829.6L-259.8,830.6Z" style="fill:white;fill-rule:nonzero;"/>
    </g>
    <g transform="matrix(1,0,0,1,272,580.1)">
        <path d="M-266.8,873.6L-266.8,869.6L-271.8,875.6L-266.8,881.6L-266.8,877.6C-261.8,877.6 -257.8,880.3 -257.8,883.6C-257.8,878.1 -261.8,873.6 -266.8,873.6Z" style="fill:white;fill-rule:nonzero;"/>
    </g>
    <g transform="matrix(1,0,0,1,272,580.1)">
        <path d="M-263.9,971.2L-267.4,974.7C-267.5,974.8 -267.6,974.8 -267.8,974.8C-268,974.8 -268.1,974.7 -268.2,974.7L-271.7,971.2C-271.8,971.1 -271.8,971 -271.8,970.8C-271.8,970.5 -271.6,970.3 -271.3,970.3L-264.3,970.3C-264,970.3 -263.8,970.5 -263.8,970.8C-263.8,971 -263.9,971.1 -263.9,971.2Z" style="fill:white;fill-rule:nonzero;"/>
    </g>
    <g transform="matrix(1,0,0,1,272,580.1)">
        <path d="M-254.1,1035.2L-258.9,1030.4C-258.2,1029.3 -257.8,1028 -257.8,1026.6C-257.8,1022.7 -260.9,1019.6 -264.8,1019.6C-268.7,1019.6 -271.8,1022.7 -271.8,1026.6C-271.8,1030.5 -268.7,1033.6 -264.8,1033.6C-263.4,1033.6 -262.1,1033.2 -261,1032.5L-256.2,1037.3C-255.8,1037.7 -255.2,1037.7 -254.8,1037.3L-254.1,1036.6C-253.7,1036.2 -253.7,1035.6 -254.1,1035.2ZM-264.8,1031.6C-267.6,1031.6 -269.8,1029.4 -269.8,1026.6C-269.8,1023.8 -267.6,1021.6 -264.8,1021.6C-262,1021.6 -259.8,1023.8 -259.8,1026.6C-259.8,1029.4 -262,1031.6 -264.8,1031.6Z" style="fill:white;fill-rule:nonzero;"/>
    </g>
    <g transform="matrix(1,0,0,1,272,580.1)">
        <rect x="-271.8" y="1069.6" width="36" height="36" style="fill:rgb(0,103,120);"/>
    </g>
    <g transform="matrix(1,0,0,1,14.0594,1679.68)">
        <text x="0px" y="0px" style="font-family:'LucidaGrande';font-size:36px;fill:white;">!</text>
    </g>
    <g transform="matrix(1,0,0,1,272,580.1)">
        <path d="M-263.4,1120.8L-264.1,1120.1C-264.4,1119.7 -264.6,1119.7 -265.2,1119.7L-266.6,1119.7C-267.1,1119.7 -267.4,1119.8 -267.7,1120.1L-268.4,1120.8C-270.4,1121.2 -271.9,1122.1 -271.9,1122.8L-271.9,1122.9C-271.9,1124.1 -269.2,1125.1 -266,1125.1C-262.8,1125.1 -260.1,1124.1 -260.1,1122.9L-260.1,1122.8C-259.9,1122.1 -261.4,1121.1 -263.4,1120.8ZM-264.2,1122.5L-267.4,1122.5L-268.7,1122.5C-268.7,1122.5 -267.2,1120.8 -267.1,1120.5C-267,1120.3 -266.8,1120.3 -266.6,1120.3L-265,1120.3C-264.8,1120.3 -264.7,1120.4 -264.5,1120.5C-264.3,1120.7 -262.9,1122.5 -262.9,1122.5L-264.2,1122.5Z" style="fill:rgb(0,103,120);fill-rule:nonzero;"/>
    </g>
    <g transform="matrix(1,0,0,1,272,580.1)">
        <path d="M-260.7,1124.5L-261.1,1128.3L-261.5,1132.1C-261.5,1132.3 -262,1132.7 -262.7,1133C-263.5,1133.3 -264.5,1133.6 -265.8,1133.6C-267.1,1133.6 -268.1,1133.3 -268.9,1133C-269.7,1132.7 -270.1,1132.3 -270.1,1132.1L-270.5,1128.3L-270.9,1124.5C-270.2,1124.9 -269.4,1125.1 -268.5,1125.3C-267.6,1125.5 -266.6,1125.6 -265.7,1125.6C-264.8,1125.6 -263.8,1125.5 -262.9,1125.3C-262.2,1125.1 -261.4,1124.8 -260.7,1124.5Z" style="fill:rgb(0,103,120);fill-rule:nonzero;"/>
    </g>
    <g transform="matrix(1,0,0,1,272,580.1)">
        <path d="M-256.1,1183.4L-260.4,1179.1C-259.8,1178.1 -259.4,1177 -259.4,1175.7C-259.4,1172.3 -262.2,1169.5 -265.6,1169.5C-269,1169.5 -271.8,1172.3 -271.8,1175.7C-271.8,1179.1 -269,1181.9 -265.6,1181.9C-264.4,1181.9 -263.2,1181.5 -262.2,1180.9L-257.9,1185.2C-257.6,1185.5 -257,1185.5 -256.6,1185.2L-256,1184.6C-255.7,1184.4 -255.7,1183.8 -256.1,1183.4ZM-265.6,1180.3C-268.1,1180.3 -270,1178.3 -270,1175.9C-270,1173.5 -268,1171.5 -265.6,1171.5C-263.1,1171.5 -261.2,1173.5 -261.2,1175.9C-261.2,1178.3 -263.1,1180.3 -265.6,1180.3Z" style="fill:rgb(0,103,120);fill-rule:nonzero;"/>
    </g>
    <g transform="matrix(1,0,0,1,272,580.1)">
        <path d="M-263.2,-272.6C-263.8,-272.2 -264.3,-271.5 -264.3,-271.2C-264.3,-271 -264.5,-270.7 -264.7,-270.7L-267.3,-270.7C-267.5,-270.7 -267.7,-271.1 -267.7,-271.3L-267.7,-271.8C-267.7,-273.1 -266.4,-274.3 -265.4,-274.7C-264.6,-275.1 -264.2,-275.4 -264.2,-276.1C-264.2,-276.7 -265,-277.3 -265.9,-277.3C-266.4,-277.3 -266.8,-277.1 -267.1,-277C-267.4,-276.8 -267.6,-276.6 -268.3,-275.7C-268.4,-275.6 -268.5,-275.5 -268.6,-275.5C-268.7,-275.5 -268.8,-275.5 -268.9,-275.6L-270.7,-277C-270.9,-277.1 -270.9,-277.4 -270.8,-277.6C-269.6,-279.6 -268,-280.5 -265.7,-280.5C-263.4,-280.5 -260.7,-278.6 -260.7,-276.1C-260.7,-274 -262.2,-273.2 -263.2,-272.6ZM-264.2,-266.8C-264.2,-266.6 -264.4,-266.4 -264.6,-266.4L-267.2,-266.4C-267.4,-266.4 -267.6,-266.6 -267.6,-266.8L-267.6,-269.4C-267.6,-269.6 -267.4,-269.8 -267.2,-269.8L-264.6,-269.8C-264.4,-269.8 -264.2,-269.6 -264.2,-269.4C-264.2,-269.5 -264.2,-266.8 -264.2,-266.8Z" style="fill:white;fill-rule:nonzero;"/>
    </g>
    <g transform="matrix(1,0,0,1,272,580.1)">
        <path d="M-263.7,-474.1L-269.4,-479.8C-269.8,-480.2 -270.4,-480.2 -270.8,-479.8L-271.5,-479.1C-271.9,-478.7 -271.9,-478.1 -271.5,-477.7L-267.3,-473.5L-271.5,-469.3C-271.9,-468.9 -271.9,-468.3 -271.5,-467.9L-270.8,-467.2C-270.4,-466.8 -269.8,-466.8 -269.4,-467.2L-263.7,-472.9C-263.3,-473.1 -263.3,-473.7 -263.7,-474.1Z" style="fill:white;fill-rule:nonzero;"/>
    </g>
    <g transform="matrix(1,0,0,1,272,580.1)">
        <path d="M-258.8,-480.1L-259.8,-480.1C-260.4,-480.1 -260.8,-479.7 -260.8,-479.1L-260.8,-467.8C-260.8,-467.2 -260.4,-466.8 -259.8,-466.8L-258.8,-466.8C-258.2,-466.8 -257.8,-467.2 -257.8,-467.8L-257.8,-479.1C-257.8,-479.6 -258.2,-480.1 -258.8,-480.1Z" style="fill:white;fill-rule:nonzero;"/>
    </g>
    <g transform="matrix(1,0,0,1,272,580.1)">
        <path d="M-265.9,-424.1L-260.2,-429.8C-259.8,-430.2 -259.2,-430.2 -258.8,-429.8L-258.1,-429.1C-257.7,-428.7 -257.7,-428.1 -258.1,-427.7L-262.3,-423.5L-258.1,-419.3C-257.7,-418.9 -257.7,-418.3 -258.1,-417.9L-258.8,-417.2C-259.2,-416.8 -259.8,-416.8 -260.2,-417.2L-265.9,-422.9C-266.3,-423.1 -266.3,-423.7 -265.9,-424.1Z" style="fill:white;fill-rule:nonzero;"/>
    </g>
    <g transform="matrix(1,0,0,1,272,580.1)">
        <path d="M-270.8,-430.1L-269.8,-430.1C-269.2,-430.1 -268.8,-429.7 -268.8,-429.1L-268.8,-417.8C-268.8,-417.2 -269.2,-416.8 -269.8,-416.8L-270.8,-416.8C-271.4,-416.8 -271.8,-417.2 -271.8,-417.8L-271.8,-429.1C-271.8,-429.6 -271.4,-430.1 -270.8,-430.1Z" style="fill:white;fill-rule:nonzero;"/>
    </g>
    <g transform="matrix(1,0,0,1,272,580.1)">
        <path d="M-270.7,-524.1L-265,-529.8C-264.6,-530.2 -264,-530.2 -263.6,-529.8L-262.9,-529.1C-262.5,-528.7 -262.5,-528.1 -262.9,-527.7L-267.1,-523.5L-262.9,-519.3C-262.5,-518.9 -262.5,-518.3 -262.9,-517.9L-263.6,-517.2C-264,-516.8 -264.6,-516.8 -265,-517.2L-270.7,-522.9C-271.1,-523.1 -271.1,-523.7 -270.7,-524.1Z" style="fill:white;fill-rule:nonzero;"/>
    </g>
    <g transform="matrix(1,0,0,1,272,580.1)">
        <path d="M-259.6,-372.2C-260.7,-371.1 -262.2,-370.4 -263.8,-370.4C-265.4,-370.4 -267,-371.1 -268,-372.2C-270.2,-370.8 -271.8,-368.3 -271.8,-365.4C-271.8,-364.8 -271.4,-364.4 -270.8,-364.4L-256.8,-364.4C-256.2,-364.4 -255.8,-364.8 -255.8,-365.4C-255.8,-368.3 -257.3,-370.8 -259.6,-372.2Z" style="fill:white;fill-rule:nonzero;"/>
    </g>
    <g transform="matrix(1,0,0,1,272,580.1)">
        <circle cx="-263.8" cy="-376.4" r="4" style="fill:white;"/>
    </g>
    <g transform="matrix(1,0,0,1,272,580.1)">
        <path d="M-249.6,-322.2C-250.7,-321.1 -252.2,-320.4 -253.8,-320.4C-255.4,-320.4 -257,-321.1 -258,-322.2C-260.2,-320.8 -261.8,-318.3 -261.8,-315.4C-261.8,-314.8 -261.4,-314.4 -260.8,-314.4L-246.8,-314.4C-246.2,-314.4 -245.8,-314.8 -245.8,-315.4C-245.8,-318.3 -247.3,-320.8 -249.6,-322.2Z" style="fill:white;fill-rule:nonzero;"/>
    </g>
    <g transform="matrix(1,0,0,1,272,580.1)">
        <circle cx="-253.8" cy="-326.4" r="4" style="fill:white;"/>
    </g>
    <g transform="matrix(1,0,0,1,272,580.1)">
        <path d="M-266.6,-219.1L-270.8,-223.3C-271.2,-223.7 -271.2,-224.3 -270.8,-224.7L-270.1,-225.4C-269.7,-225.8 -269.1,-225.8 -268.7,-225.4L-265.9,-222.6L-258.8,-229.7C-258.4,-230.1 -257.8,-230.1 -257.4,-229.7L-256.7,-229C-256.3,-228.6 -256.3,-228 -256.7,-227.6L-265.2,-219.1C-265.6,-218.7 -266.2,-218.7 -266.6,-219.1Z" style="fill:white;fill-rule:nonzero;"/>
    </g>
    <g transform="matrix(1,0,0,1,272,580.1)">
        <path d="M-260.5,-171.2L-263.7,-174.4L-260.5,-177.6C-260.1,-178 -260.1,-178.6 -260.5,-179L-261.2,-179.7C-261.6,-180.1 -262.2,-180.1 -262.6,-179.7L-265.8,-176.5L-269,-179.7C-269.4,-180.1 -270,-180.1 -270.4,-179.7L-271.1,-179C-271.5,-178.6 -271.5,-178 -271.1,-177.6L-267.9,-174.4L-271.1,-171.2C-271.5,-170.8 -271.5,-170.2 -271.1,-169.8L-270.4,-169.1C-270,-168.7 -269.4,-168.7 -269,-169.1L-265.8,-172.3L-262.6,-169.1C-262.2,-168.7 -261.6,-168.7 -261.2,-169.1L-260.5,-169.8C-260.1,-170.2 -260.1,-170.8 -260.5,-171.2Z" style="fill:white;fill-rule:nonzero;"/>
    </g>
    <g transform="matrix(1,0,0,1,272,580.1)">
        <path d="M-258.8,-124.9L-263.3,-124.9L-263.3,-129.4C-263.3,-130 -263.7,-130.4 -264.3,-130.4L-265.3,-130.4C-265.9,-130.4 -266.3,-130 -266.3,-129.4L-266.3,-124.9L-270.8,-124.9C-271.4,-124.9 -271.8,-124.5 -271.8,-123.9L-271.8,-122.9C-271.8,-122.3 -271.4,-121.9 -270.8,-121.9L-266.3,-121.9L-266.3,-117.4C-266.3,-116.8 -265.9,-116.4 -265.3,-116.4L-264.3,-116.4C-263.7,-116.4 -263.3,-116.8 -263.3,-117.4L-263.3,-121.9L-258.8,-121.9C-258.2,-121.9 -257.8,-122.3 -257.8,-122.9L-257.8,-123.9C-257.8,-124.5 -258.2,-124.9 -258.8,-124.9Z" style="fill:white;fill-rule:nonzero;"/>
    </g>
    <g transform="matrix(1,0,0,1,272,580.1)">
        <path d="M-263.8,-323.4L-266.3,-323.4L-266.3,-325.9C-266.3,-326.5 -266.7,-326.9 -267.3,-326.9C-267.9,-326.9 -268.3,-326.5 -268.3,-325.9L-268.3,-323.4L-270.8,-323.4C-271.4,-323.4 -271.8,-323 -271.8,-322.4C-271.8,-321.8 -271.4,-321.4 -270.8,-321.4L-268.3,-321.4L-268.3,-318.9C-268.3,-318.3 -267.9,-317.9 -267.3,-317.9C-266.7,-317.9 -266.3,-318.3 -266.3,-318.9L-266.3,-321.4L-263.8,-321.4C-263.2,-321.4 -262.8,-321.8 -262.8,-322.4C-262.8,-323 -263.2,-323.4 -263.8,-323.4Z" style="fill:white;fill-rule:nonzero;"/>
    </g>
    <g transform="matrix(1,0,0,1,272,580.1)">
        <path d="M-262.9,-574.1L-268.6,-579.8C-269,-580.2 -269.6,-580.2 -270,-579.8L-270.7,-579.1C-271.1,-578.7 -271.1,-578.1 -270.7,-577.7L-266.5,-573.5L-270.7,-569.3C-271.1,-568.9 -271.1,-568.3 -270.7,-567.9L-270,-567.2C-269.6,-566.8 -269,-566.8 -268.6,-567.2L-262.9,-572.9C-262.5,-573.1 -262.5,-573.7 -262.9,-574.1Z" style="fill:white;fill-rule:nonzero;"/>
    </g>
    <g transform="matrix(1,0,0,1,272,580.1)">
        <path d="M-262.8,1231.6L-262.8,1233.6L-269.8,1233.6L-269.8,1221.6L-262.8,1221.6L-262.8,1223.6L-260.8,1223.6L-260.8,1219.6L-271.8,1219.6L-271.8,1235.6L-260.8,1235.6L-260.8,1231.6L-262.8,1231.6Z" style="fill:white;fill-rule:nonzero;"/>
        <path d="M-254.8,1227.6L-258.8,1223.6L-258.8,1225.6L-265.8,1225.6L-265.8,1229.6L-258.8,1229.6L-258.8,1231.6L-254.8,1227.6Z" style="fill:white;fill-rule:nonzero;"/>
    </g>
    <g transform="matrix(1,0,0,1,272,580.1)">
        <path d="M-241.8,1282.9L-241.8,1286.2C-241.8,1287.1 -242.5,1287.9 -243.5,1287.9L-253.5,1287.9L-253.5,1297.9C-253.5,1298.8 -254.2,1299.6 -255.2,1299.6L-258.5,1299.6C-259.4,1299.6 -260.2,1298.9 -260.2,1297.9L-260.2,1287.9L-270.2,1287.9C-271.1,1287.9 -271.9,1287.2 -271.9,1286.2L-271.9,1282.9C-271.9,1282 -271.2,1281.2 -270.2,1281.2L-260.2,1281.2L-260.2,1271.2C-260.2,1270.3 -259.5,1269.5 -258.5,1269.5L-255.2,1269.5C-254.3,1269.5 -253.5,1270.2 -253.5,1271.2L-253.5,1281.2L-243.5,1281.2C-242.5,1281.3 -241.8,1282 -241.8,1282.9Z" style="fill:rgb(0,103,120);fill-rule:nonzero;"/>
    </g>
    <g transform="matrix(1,0,0,1,272,580.1)">
        <path d="M-241.8,1332.9L-241.8,1336.2C-241.8,1337.1 -242.5,1337.9 -243.5,1337.9L-253.5,1337.9L-260.2,1337.9L-270.2,1337.9C-271.1,1337.9 -271.9,1337.2 -271.9,1336.2L-271.9,1332.9C-271.9,1332 -271.2,1331.2 -270.2,1331.2L-243.5,1331.2C-242.5,1331.3 -241.8,1332 -241.8,1332.9Z" style="fill:rgb(0,103,120);fill-rule:nonzero;"/>
    </g>
    <g transform="matrix(1,0,0,1,272,580.1)">
        <path d="M-251,1374.2L-254.5,1370.7C-254.9,1370.3 -255.5,1370.3 -255.9,1370.7L-258.7,1373.5L-253.7,1378.4L-250.9,1375.6C-250.6,1375.2 -250.6,1374.6 -251,1374.2Z" style="fill:white;fill-rule:nonzero;"/>
        <path d="M-259.5,1374.2L-270.8,1385.5L-270.8,1390.4L-265.9,1390.4L-254.6,1379.1L-259.5,1374.2ZM-266.9,1383L-259.8,1375.9C-259.6,1375.7 -259.3,1375.7 -259.1,1375.9C-258.9,1376.1 -258.9,1376.4 -259.1,1376.6L-266.2,1383.7C-266.4,1383.9 -266.7,1383.9 -266.9,1383.7C-267.1,1383.5 -267.1,1383.2 -266.9,1383ZM-266.2,1389.4L-268,1389.4L-268,1387.6L-269.8,1387.6L-269.8,1385.8L-268,1384L-264.5,1387.5L-266.2,1389.4Z" style="fill:white;fill-rule:nonzero;"/>
    </g>
</svg>
