<?xml version="1.0" encoding="utf-8"?>
<!-- Generator: Adobe Illustrator 18.1.1, SVG Export Plug-In . SVG Version: 6.00 Build 0)  -->
<svg version="1.1" id="Layer_1" xmlns="http://www.w3.org/2000/svg" xmlns:xlink="http://www.w3.org/1999/xlink" x="0px" y="0px"
	 width="50px" height="2000px" viewBox="-272 -580.1 50 2000" enable-background="new -272 -580.1 50 2000" xml:space="preserve">
<path fill="#000100" d="M-264.5,25.1h-7c-0.3,0-0.5-0.2-0.5-0.5c0-0.1,0.1-0.3,0.1-0.4l3.5-3.5c0.1-0.1,0.2-0.1,0.4-0.1
	s0.3,0.1,0.4,0.1l3.5,3.5c0.1,0.1,0.1,0.2,0.1,0.4C-264,24.9-264.2,25.1-264.5,25.1z"/>
<path fill="#000100" d="M-264.1,127.7l-3.5,3.5c-0.1,0.1-0.2,0.1-0.4,0.1s-0.3-0.1-0.4-0.1l-3.5-3.5c-0.1-0.1-0.1-0.2-0.1-0.4
	c0-0.3,0.2-0.5,0.5-0.5h7c0.3,0,0.5,0.2,0.5,0.5C-264,127.5-264.1,127.6-264.1,127.7z"/>
<path fill="#000100" d="M-264.5,124.9h-7c-0.3,0-0.5-0.2-0.5-0.5c0-0.1,0.1-0.3,0.1-0.4l3.5-3.5c0.1-0.1,0.2-0.1,0.4-0.1
	s0.3,0.1,0.4,0.1l3.5,3.5c0.1,0.1,0.1,0.2,0.1,0.4C-264,124.7-264.2,124.9-264.5,124.9z"/>
<path fill="#000100" d="M-264.1,71.5l-3.5,3.5c-0.1,0.1-0.2,0.1-0.4,0.1s-0.3-0.1-0.4-0.1l-3.5-3.5c-0.1-0.1-0.1-0.2-0.1-0.4
	c0-0.3,0.2-0.5,0.5-0.5h7c0.3,0,0.5,0.2,0.5,0.5C-264,71.3-264.1,71.4-264.1,71.5z"/>
<path fill="#588A70" d="M-255,576.9h-6v-6c0-0.6-0.4-1-1-1h-2c-0.6,0-1,0.4-1,1v6h-6c-0.6,0-1,0.4-1,1v2c0,0.6,0.4,1,1,1h6v6
	c0,0.6,0.4,1,1,1h2c0.6,0,1-0.4,1-1v-6h6c0.6,0,1-0.4,1-1v-2C-254,577.3-254.4,576.9-255,576.9z"/>
<path fill="#426955" d="M-255,626.9h-6v-6c0-0.6-0.4-1-1-1h-2c-0.6,0-1,0.4-1,1v6h-6c-0.6,0-1,0.4-1,1v2c0,0.6,0.4,1,1,1h6v6
	c0,0.6,0.4,1,1,1h2c0.6,0,1-0.4,1-1v-6h6c0.6,0,1-0.4,1-1v-2C-254,627.3-254.4,626.9-255,626.9z"/>
<path fill="#588A70" d="M-259.8,670.8l-4.2,4.2l-4.2-4.2c-0.4-0.4-1-0.4-1.4,0l-1.4,1.4c-0.4,0.4-0.4,1,0,1.4l4.2,4.2l-4.2,4.2
	c-0.4,0.4-0.4,1,0,1.4l1.4,1.4c0.4,0.4,1,0.4,1.4,0l4.2-4.2l4.2,4.2c0.4,0.4,1,0.4,1.4,0l1.4-1.4c0.4-0.4,0.4-1,0-1.4l-4.2-4.2
	l4.2-4.2c0.4-0.4,0.4-1,0-1.4l-1.4-1.4C-258.7,670.4-259.4,670.4-259.8,670.8z"/>
<path fill="#426955" d="M-259.8,720.8l-4.2,4.2l-4.2-4.2c-0.4-0.4-1-0.4-1.4,0l-1.4,1.4c-0.4,0.4-0.4,1,0,1.4l4.2,4.2l-4.2,4.2
	c-0.4,0.4-0.4,1,0,1.4l1.4,1.4c0.4,0.4,1,0.4,1.4,0l4.2-4.2l4.2,4.2c0.4,0.4,1,0.4,1.4,0l1.4-1.4c0.4-0.4,0.4-1,0-1.4l-4.2-4.2
	l4.2-4.2c0.4-0.4,0.4-1,0-1.4l-1.4-1.4C-258.7,720.4-259.4,720.4-259.8,720.8z"/>
<path d="M-252.8-28.4l-1.4-1.4c-0.4-0.4-1-0.4-1.4,0l-6.4,6.4l-6.4-6.4c-0.4-0.4-1-0.4-1.4,0l-1.4,1.4c-0.4,0.4-0.4,1,0,1.4l8.5,8.5
	l0,0l0,0c0.4,0.4,1,0.4,1.4,0l8.5-8.5C-252.4-27.3-252.4-28-252.8-28.4z"/>
<path d="M-252.8-69.9l-1.4,1.4c-0.4,0.4-1,0.4-1.4,0l-6.4-6.4l-6.4,6.4c-0.4,0.4-1,0.4-1.4,0l-1.4-1.4c-0.4-0.4-0.4-1,0-1.4l8.5-8.5
	l0,0l0,0c0.4-0.4,1-0.4,1.4,0l8.5,8.5C-252.4-70.9-252.4-70.3-252.8-69.9z"/>
<path d="M-266.8,781.2l-4.2-4.2c-0.4-0.4-0.4-1,0-1.4l0.7-0.7c0.4-0.4,1-0.4,1.4,0l2.8,2.8l7.1-7.1c0.4-0.4,1-0.4,1.4,0l0.7,0.7
	c0.4,0.4,0.4,1,0,1.4l-8.5,8.5C-265.8,781.6-266.4,781.6-266.8,781.2z"/>
<path fill="#ED1C24" d="M-260.7,929.1l-3.2-3.2l3.2-3.2c0.4-0.4,0.4-1,0-1.4l-0.7-0.7c-0.4-0.4-1-0.4-1.4,0l-3.2,3.2l-3.2-3.2
	c-0.4-0.4-1-0.4-1.4,0l-0.7,0.7c-0.4,0.4-0.4,1,0,1.4l3.2,3.2l-3.2,3.2c-0.4,0.4-0.4,1,0,1.4l0.7,0.7c0.4,0.4,1,0.4,1.4,0l3.2-3.2
	l3.2,3.2c0.4,0.4,1,0.4,1.4,0l0.7-0.7C-260.3,930.1-260.3,929.5-260.7,929.1z"/>
<path fill="#588A70" d="M-251.2,174.7l-3.5-3.5c-0.4-0.4-1-0.4-1.4,0l-2.8,2.8l4.9,4.9l2.8-2.8
	C-250.9,175.7-250.9,175.1-251.2,174.7z"/>
<path fill="#588A70" d="M-259.7,174.7L-271,186v4.9h4.9l11.3-11.3L-259.7,174.7z M-267.2,183.5l7.1-7.1c0.2-0.2,0.5-0.2,0.7,0
	c0.2,0.2,0.2,0.5,0,0.7l-7.1,7.1v0c-0.2,0.2-0.5,0.2-0.7,0C-267.4,184-267.4,183.7-267.2,183.5L-267.2,183.5z M-266.5,189.9h-1.8
	v-1.8h-1.8v-1.8l1.8-1.8l3.5,3.5L-266.5,189.9z"/>
<path fill="#426955" d="M-251.2,224.7l-3.5-3.5c-0.4-0.4-1-0.4-1.4,0l-2.8,2.8l4.9,4.9l2.8-2.8
	C-250.9,225.7-250.9,225.1-251.2,224.7z"/>
<path fill="#426955" d="M-259.7,224.7L-271,236v4.9h4.9l11.3-11.3L-259.7,224.7z M-267.2,233.5l7.1-7.1c0.2-0.2,0.5-0.2,0.7,0
	c0.2,0.2,0.2,0.5,0,0.7l-7.1,7.1v0c-0.2,0.2-0.5,0.2-0.7,0C-267.4,234-267.4,233.7-267.2,233.5L-267.2,233.5z M-266.5,239.9h-1.8
	v-1.8h-1.8v-1.8l1.8-1.8l3.5,3.5L-266.5,239.9z"/>
<path fill="#FFFFFF" d="M-255,472.9h-2v-1c0-1.1-0.9-2-2-2c-1.1,0-2,0.9-2,2h0v1h-4v-1l0,0c0-1.1-0.9-2-2-2s-2,0.9-2,2v1h-2
	c-0.6,0-1,0.4-1,1v13c0,0.6,0.4,1,1,1l0,0h16c0.6,0,1-0.4,1-1v-13C-254,473.3-254.4,472.9-255,472.9z M-260,471.9c0-0.6,0.4-1,1-1
	c0.6,0,1,0.4,1,1v2c0,0.6-0.4,1-1,1c-0.6,0-1-0.4-1-1V471.9z M-268,471.9c0-0.6,0.4-1,1-1s1,0.4,1,1v2c0,0.6-0.4,1-1,1s-1-0.4-1-1
	V471.9z M-256,485.9h-14v-9h14V485.9z"/>
<path fill="#E6E6E6" d="M-255,522.9h-2v-1c0-1.1-0.9-2-2-2c-1.1,0-2,0.9-2,2h0v1h-4v-1l0,0c0-1.1-0.9-2-2-2s-2,0.9-2,2v1h-2
	c-0.6,0-1,0.4-1,1v13c0,0.6,0.4,1,1,1l0,0h16c0.6,0,1-0.4,1-1v-13C-254,523.3-254.4,522.9-255,522.9z M-260,521.9c0-0.6,0.4-1,1-1
	c0.6,0,1,0.4,1,1v2c0,0.6-0.4,1-1,1c-0.6,0-1-0.4-1-1V521.9z M-268,521.9c0-0.6,0.4-1,1-1s1,0.4,1,1v2c0,0.6-0.4,1-1,1s-1-0.4-1-1
	V521.9z M-256,535.9h-14v-9h14V535.9z"/>
<path fill="#588A70" d="M-252,269.9h-18c-1.1,0-2,0.9-2,2v14c0,1.1,0.9,2,2,2h18c1.1,0,2-0.9,2-2v-14
	C-250,270.8-250.9,269.9-252,269.9z M-252,271.9l-8.3,8.3c-0.4,0.4-1,0.4-1.4,0l-8.3-8.3H-252z M-253,285.9h-16c-0.6,0-1-0.4-1-1
	v-10.2l7.6,7.6c0.8,0.8,2,0.8,2.8,0l7.6-7.6v10.2C-252,285.4-252.4,285.9-253,285.9z"/>
<path fill="#426955" d="M-252,319.9h-18c-1.1,0-2,0.9-2,2v14c0,1.1,0.9,2,2,2h18c1.1,0,2-0.9,2-2v-14
	C-250,320.8-250.9,319.9-252,319.9z M-252,321.9l-8.3,8.3c-0.4,0.4-1,0.4-1.4,0l-8.3-8.3H-252z M-253,335.9h-16c-0.6,0-1-0.4-1-1
	v-10.2l7.6,7.6c0.8,0.8,2,0.8,2.8,0l7.6-7.6v10.2C-252,335.4-252.4,335.9-253,335.9z"/>
<path fill="#588A70" d="M-253,376.9v-2l-5-5h-10c-0.6,0-1,0.4-1,1v6c-1.7,0-3,1.3-3,3v5c0,0.6,0.4,1,1,1h2v3c0,0.6,0.4,1,1,1h14
	c0.6,0,1-0.4,1-1v-3h2c0.6,0,1-0.4,1-1v-5C-250,378.2-251.3,376.9-253,376.9z M-255,387.9h-12v-4h12V387.9z M-255,378.9h-12v-7h9v2
	c0,0.6,0.4,1,1,1h2V378.9z M-254,379.9c0-0.6,0.4-1,1-1s1,0.4,1,1s-0.4,1-1,1S-254,380.4-254,379.9z"/>
<path fill="#426955" d="M-253,426.9v-2l-5-5h-10c-0.6,0-1,0.4-1,1v6c-1.7,0-3,1.3-3,3v5c0,0.6,0.4,1,1,1h2v3c0,0.6,0.4,1,1,1h14
	c0.6,0,1-0.4,1-1v-3h2c0.6,0,1-0.4,1-1v-5C-250,428.2-251.3,426.9-253,426.9z M-255,437.9h-12v-4h12V437.9z M-255,428.9h-12v-7h9v2
	c0,0.6,0.4,1,1,1h2V428.9z M-254,429.9c0-0.6,0.4-1,1-1s1,0.4,1,1s-0.4,1-1,1S-254,430.4-254,429.9z"/>
<path fill="#FFFFFF" d="M-258.4,827l-2.3-6.1c-0.2-0.5-0.8-0.9-1.4-0.9h-2v4h3l-4,4l-4-4h3v-4h-2c-0.5,0-1.2,0.4-1.4,0.9l-2.3,6.1
	c-0.2,0.5-0.4,1.4-0.4,1.9v4c0,0.6,0.5,1,1,1h12c0.5,0,1-0.4,1-1v-4C-258,828.3-258.2,827.5-258.4,827z M-260,830.9c0,0.6-0.5,1-1,1
	h-8c-0.5,0-1-0.4-1-1v-1c0-0.6,0.5-1,1-1h8c0.5,0,1,0.4,1,1V830.9z"/>
<path fill="#FFFFFF" d="M-267,873.9v-4l-5,6l5,6v-4c5,0,9,2.7,9,6C-258,878.4-262,873.9-267,873.9z"/>
<path fill="#FFFFFF" d="M-264.1,971.5l-3.5,3.5c-0.1,0.1-0.2,0.1-0.4,0.1s-0.3-0.1-0.4-0.1l-3.5-3.5c-0.1-0.1-0.1-0.2-0.1-0.4
	c0-0.3,0.2-0.5,0.5-0.5h7c0.3,0,0.5,0.2,0.5,0.5C-264,971.3-264.1,971.4-264.1,971.5z"/>
<path fill="#FFFFFF" d="M-254.3,1035.5l-4.8-4.8c0.7-1.1,1.1-2.4,1.1-3.8c0-3.9-3.1-7-7-7s-7,3.1-7,7s3.1,7,7,7
	c1.4,0,2.7-0.4,3.8-1.1l4.8,4.8c0.4,0.4,1,0.4,1.4,0l0.7-0.7C-253.9,1036.5-253.9,1035.9-254.3,1035.5z M-265,1031.9
	c-2.8,0-5-2.2-5-5s2.2-5,5-5s5,2.2,5,5S-262.2,1031.9-265,1031.9z"/>
<rect x="-272" y="1069.9" fill="#588A70" width="36" height="36"/>
<text transform="matrix(1 0 0 1 -258.1406 1099.889)" fill="#FFFFFF" font-family="'MyriadPro-Regular'" font-size="36">!</text>
<path fill="#588A70" d="M-263.6,1121.1l-0.7-0.7c-0.3-0.4-0.5-0.4-1.1-0.4h-1.4c-0.5,0-0.8,0.1-1.1,0.4l-0.7,0.7
	c-2,0.4-3.5,1.3-3.5,2v0.1c0,1.2,2.7,2.2,5.9,2.2s5.9-1,5.9-2.2v-0.1C-260.1,1122.4-261.6,1121.4-263.6,1121.1z M-264.4,1122.8h-3.2
	h-1.3c0,0,1.5-1.7,1.6-2c0.1-0.2,0.3-0.2,0.5-0.2h1.6c0.2,0,0.3,0.1,0.5,0.2c0.2,0.2,1.6,2,1.6,2H-264.4z"/>
<path fill="#588A70" d="M-260.9,1124.8l-0.4,3.8l-0.4,3.8c0,0.2-0.5,0.6-1.2,0.9c-0.8,0.3-1.8,0.6-3.1,0.6s-2.3-0.3-3.1-0.6
	c-0.8-0.3-1.2-0.7-1.2-0.9l-0.4-3.8l-0.4-3.8c0.7,0.4,1.5,0.6,2.4,0.8c0.9,0.2,1.9,0.3,2.8,0.3c0.9,0,1.9-0.1,2.8-0.3
	C-262.4,1125.4-261.6,1125.1-260.9,1124.8z"/>
<path fill="#588A70" d="M-256.3,1183.7l-4.3-4.3c0.6-1,1-2.1,1-3.4c0-3.4-2.8-6.2-6.2-6.2s-6.2,2.8-6.2,6.2c0,3.4,2.8,6.2,6.2,6.2
	c1.2,0,2.4-0.4,3.4-1l4.3,4.3c0.3,0.3,0.9,0.3,1.3,0l0.6-0.6C-255.9,1184.7-255.9,1184.1-256.3,1183.7z M-265.8,1180.6
	c-2.5,0-4.4-2-4.4-4.4s2-4.4,4.4-4.4c2.5,0,4.4,2,4.4,4.4S-263.3,1180.6-265.8,1180.6z"/>
<path fill="#FFFFFF" d="M-263.4-272.3c-0.6,0.4-1.1,1.1-1.1,1.4c0,0.2-0.2,0.5-0.4,0.5h-2.6c-0.2,0-0.4-0.4-0.4-0.6v-0.5
	c0-1.3,1.3-2.5,2.3-2.9c0.8-0.4,1.2-0.7,1.2-1.4c0-0.6-0.8-1.2-1.7-1.2c-0.5,0-0.9,0.2-1.2,0.3c-0.3,0.2-0.5,0.4-1.2,1.3
	c-0.1,0.1-0.2,0.2-0.3,0.2c-0.1,0-0.2,0-0.3-0.1l-1.8-1.4c-0.2-0.1-0.2-0.4-0.1-0.6c1.2-2,2.8-2.9,5.1-2.9c2.3,0,5,1.9,5,4.4
	C-260.9-273.7-262.4-272.9-263.4-272.3z M-264.4-266.5c0,0.2-0.2,0.4-0.4,0.4h-2.6c-0.2,0-0.4-0.2-0.4-0.4v-2.6
	c0-0.2,0.2-0.4,0.4-0.4h2.6c0.2,0,0.4,0.2,0.4,0.4C-264.4-269.2-264.4-266.5-264.4-266.5z"/>
<path fill="#FFFFFF" d="M-263.9-473.8l-5.7-5.7c-0.4-0.4-1-0.4-1.4,0l-0.7,0.7c-0.4,0.4-0.4,1,0,1.4l4.2,4.2l-4.2,4.2
	c-0.4,0.4-0.4,1,0,1.4l0,0l0.7,0.7v0c0.4,0.4,1,0.4,1.4,0l5.7-5.7C-263.5-472.8-263.5-473.4-263.9-473.8z"/>
<path fill="#FFFFFF" d="M-259-479.8h-1c-0.6,0-1,0.4-1,1v11.3c0,0.6,0.4,1,1,1h1c0.6,0,1-0.4,1-1v-11.3
	C-258-479.3-258.4-479.8-259-479.8z"/>
<path fill="#FFFFFF" d="M-266.1-423.8l5.7-5.7c0.4-0.4,1-0.4,1.4,0l0.7,0.7c0.4,0.4,0.4,1,0,1.4l-4.2,4.2l4.2,4.2
	c0.4,0.4,0.4,1,0,1.4l0,0l-0.7,0.7v0c-0.4,0.4-1,0.4-1.4,0l-5.7-5.7C-266.5-422.8-266.5-423.4-266.1-423.8z"/>
<path fill="#FFFFFF" d="M-271-429.8h1c0.6,0,1,0.4,1,1v11.3c0,0.6-0.4,1-1,1h-1c-0.6,0-1-0.4-1-1v-11.3
	C-272-429.3-271.6-429.8-271-429.8z"/>
<path fill="#FFFFFF" d="M-270.9-523.8l5.7-5.7c0.4-0.4,1-0.4,1.4,0l0.7,0.7c0.4,0.4,0.4,1,0,1.4l-4.2,4.2l4.2,4.2
	c0.4,0.4,0.4,1,0,1.4l0,0l-0.7,0.7v0c-0.4,0.4-1,0.4-1.4,0l-5.7-5.7C-271.3-522.8-271.3-523.4-270.9-523.8z"/>
<path fill="#FFFFFF" d="M-259.8-371.9c-1.1,1.1-2.6,1.8-4.2,1.8s-3.2-0.7-4.2-1.8c-2.2,1.4-3.8,3.9-3.8,6.8c0,0.6,0.4,1,1,1h14
	c0.6,0,1-0.4,1-1C-256-368-257.5-370.5-259.8-371.9z"/>
<circle fill="#FFFFFF" cx="-264" cy="-376.1" r="4"/>
<path fill="#FFFFFF" d="M-249.8-321.9c-1.1,1.1-2.6,1.8-4.2,1.8s-3.2-0.7-4.2-1.8c-2.2,1.4-3.8,3.9-3.8,6.8c0,0.6,0.4,1,1,1h14
	c0.6,0,1-0.4,1-1C-246-318-247.5-320.5-249.8-321.9z"/>
<circle fill="#FFFFFF" cx="-254" cy="-326.1" r="4"/>
<path fill="#FFFFFF" d="M-266.8-218.8l-4.2-4.2c-0.4-0.4-0.4-1,0-1.4l0.7-0.7c0.4-0.4,1-0.4,1.4,0l2.8,2.8l7.1-7.1
	c0.4-0.4,1-0.4,1.4,0l0.7,0.7c0.4,0.4,0.4,1,0,1.4l-8.5,8.5C-265.8-218.4-266.4-218.4-266.8-218.8z"/>
<path fill="#FFFFFF" d="M-260.7-170.9l-3.2-3.2l3.2-3.2c0.4-0.4,0.4-1,0-1.4l-0.7-0.7c-0.4-0.4-1-0.4-1.4,0l-3.2,3.2l-3.2-3.2
	c-0.4-0.4-1-0.4-1.4,0l-0.7,0.7c-0.4,0.4-0.4,1,0,1.4l3.2,3.2l-3.2,3.2c-0.4,0.4-0.4,1,0,1.4l0.7,0.7c0.4,0.4,1,0.4,1.4,0l3.2-3.2
	l3.2,3.2c0.4,0.4,1,0.4,1.4,0l0.7-0.7C-260.3-169.9-260.3-170.5-260.7-170.9z"/>
<path fill="#FFFFFF" d="M-259-124.6h-4.5l0-4.5c0-0.6-0.4-1-1-1h-1c-0.6,0-1,0.4-1,1v4.5h-4.5c-0.6,0-1,0.4-1,1l0,1c0,0.6,0.4,1,1,1
	l4.5,0v4.5c0,0.6,0.4,1,1,1h1c0.6,0,1-0.4,1-1l0-4.5l4.5,0c0.6,0,1-0.4,1-1l0-1C-258-124.2-258.4-124.6-259-124.6z"/>
<path fill="#FFFFFF" d="M-264-323.1h-2.5l0-2.5c0-0.6-0.4-1-1-1h0c-0.6,0-1,0.4-1,1v2.5h-2.5c-0.6,0-1,0.4-1,1l0,0c0,0.6,0.4,1,1,1
	l2.5,0v2.5c0,0.6,0.4,1,1,1l0,0c0.6,0,1-0.4,1-1l0-2.5l2.5,0c0.6,0,1-0.4,1-1l0,0C-263-322.7-263.4-323.1-264-323.1z"/>
<path fill="#FFFFFF" d="M-263.1-573.8l-5.7-5.7c-0.4-0.4-1-0.4-1.4,0l-0.7,0.7c-0.4,0.4-0.4,1,0,1.4l4.2,4.2l-4.2,4.2
	c-0.4,0.4-0.4,1,0,1.4l0,0l0.7,0.7v0c0.4,0.4,1,0.4,1.4,0l5.7-5.7C-262.7-572.8-262.7-573.4-263.1-573.8z"/>
<g>
	<polygon fill="#588A70" points="-263,1231.9 -263,1233.9 -270,1233.9 -270,1221.9 -263,1221.9 -263,1223.9 -261,1223.9 
		-261,1219.9 -272,1219.9 -272,1235.9 -261,1235.9 -261,1231.9 	"/>
	<polygon fill="#588A70" points="-255,1227.9 -259,1223.9 -259,1225.9 -266,1225.9 -266,1229.9 -259,1229.9 -259,1231.9 	"/>
</g>
<path fill="#588A70" d="M-242,1283.2v3.3c0,0.9-0.7,1.7-1.7,1.7h-10v10c0,0.9-0.7,1.7-1.7,1.7h-3.3c-0.9,0-1.7-0.7-1.7-1.7v-10h-10
	c-0.9,0-1.7-0.7-1.7-1.7v-3.3c0-0.9,0.7-1.7,1.7-1.7h10v-10c0-0.9,0.7-1.7,1.7-1.7h3.3c0.9,0,1.7,0.7,1.7,1.7v10h10
	C-242.7,1281.6-242,1282.3-242,1283.2z"/>
<path fill="#588A70" d="M-272,1333.2"/>
<path fill="#588A70" d="M-242,1333.2v3.3c0,0.9-0.7,1.7-1.7,1.7h-10h-6.7h-10c-0.9,0-1.7-0.7-1.7-1.7v-3.3c0-0.9,0.7-1.7,1.7-1.7h10
	h6.7h10C-242.7,1331.6-242,1332.3-242,1333.2z"/>
<g>
	<path fill="#FFFFFF" d="M-251.2,1374.5l-3.5-3.5c-0.4-0.4-1-0.4-1.4,0l-2.8,2.8l5,4.9l2.8-2.8
		C-250.8,1375.5-250.8,1374.9-251.2,1374.5z"/>
	<path fill="#FFFFFF" d="M-259.7,1374.5l-11.3,11.3v4.9h4.9l11.3-11.3L-259.7,1374.5z M-267.1,1383.3l7.1-7.1c0.2-0.2,0.5-0.2,0.7,0
		c0.2,0.2,0.2,0.5,0,0.7l-7.1,7.1v0c-0.2,0.2-0.5,0.2-0.7,0C-267.3,1383.8-267.3,1383.5-267.1,1383.3
		C-267.1,1383.3-267.1,1383.3-267.1,1383.3z M-266.4,1389.7h-1.8v-1.8h-1.8v-1.8l1.8-1.8l3.5,3.5L-266.4,1389.7z"/>
</g>
</svg>
