<?xml version="1.0" standalone="no"?>
<!DOCTYPE svg PUBLIC "-//W3C//DTD SVG 1.1//EN" "http://www.w3.org/Graphics/SVG/1.1/DTD/svg11.dtd">
<svg width="50" height="2000" viewBox="0 0 50 2000" version="1.1" xmlns="http://www.w3.org/2000/svg" xmlns:xlink="http://www.w3.org/1999/xlink" xml:space="preserve" style="fill-rule:evenodd;clip-rule:evenodd;stroke-linejoin:round;stroke-miterlimit:1.41421;">
    <path d="M7.5,605.25L0.5,605.25C0.227,605.25 0,605.023 0,604.75C0,604.617 0.055,604.492 0.148,604.398L3.648,600.898C3.742,600.804 3.867,600.75 4,600.75C4.133,600.75 4.258,600.805 4.352,600.898L7.852,604.398C7.945,604.492 8,604.617 8,604.75C8,605.023 7.773,605.25 7.5,605.25Z" style="fill:rgb(0,1,0);fill-rule:nonzero;"/>
    <path d="M7.852,707.852L4.352,711.352C4.258,711.445 4.133,711.5 4,711.5C3.867,711.5 3.742,711.445 3.648,711.352L0.148,707.852C0.055,707.758 0,707.633 0,707.5C0,707.227 0.227,707 0.5,707L7.5,707C7.773,707 8,707.227 8,707.5C8,707.633 7.945,707.758 7.852,707.852Z" style="fill:rgb(0,1,0);fill-rule:nonzero;"/>
    <path d="M7.5,705L0.5,705C0.227,705 0,704.773 0,704.5C0,704.367 0.055,704.242 0.148,704.148L3.648,700.648C3.742,700.555 3.867,700.5 4,700.5C4.133,700.5 4.258,700.555 4.352,700.648L7.852,704.148C7.945,704.242 8,704.367 8,704.5C8,704.773 7.773,705 7.5,705Z" style="fill:rgb(0,1,0);fill-rule:nonzero;"/>
    <path d="M7.852,651.602L4.352,655.102C4.258,655.195 4.133,655.25 4,655.25C3.867,655.25 3.742,655.195 3.648,655.102L0.148,651.602C0.055,651.508 0,651.383 0,651.25C0,650.977 0.227,650.75 0.5,650.75L7.5,650.75C7.773,650.75 8,650.977 8,651.25C8,651.383 7.945,651.508 7.852,651.602Z" style="fill:rgb(0,1,0);fill-rule:nonzero;"/>
    <path d="M17,1157L11,1157L11,1151C11,1150.45 10.552,1150 10,1150L8,1150C7.447,1150 7,1150.45 7,1151L7,1157L1,1157C0.447,1157 0,1157.45 0,1158L0,1160C0,1160.55 0.447,1161 1,1161L7,1161L7,1167C7,1167.55 7.447,1168 8,1168L10,1168C10.552,1168 11,1167.55 11,1167L11,1161L17,1161C17.553,1161 18,1160.55 18,1160L18,1158C18,1157.45 17.553,1157 17,1157Z" style="fill:rgb(239,125,0);fill-rule:nonzero;"/>
    <path d="M17,1207L11,1207L11,1201C11,1200.45 10.552,1200 10,1200L8,1200C7.447,1200 7,1200.45 7,1201L7,1207L1,1207C0.447,1207 0,1207.45 0,1208L0,1210C0,1210.55 0.447,1211 1,1211L7,1211L7,1217C7,1217.55 7.447,1218 8,1218L10,1218C10.552,1218 11,1217.55 11,1217L11,1211L17,1211C17.553,1211 18,1210.55 18,1210L18,1208C18,1207.45 17.553,1207 17,1207Z" style="fill:rgb(166,79,7);fill-rule:nonzero;"/>
    <path d="M12.243,1250.93L8,1255.17L3.757,1250.93C3.367,1250.54 2.734,1250.54 2.343,1250.93L0.929,1252.34C0.538,1252.73 0.538,1253.37 0.929,1253.76L5.171,1258L0.929,1262.24C0.538,1262.63 0.538,1263.27 0.929,1263.65L2.343,1265.07C2.734,1265.46 3.366,1265.46 3.757,1265.07L8,1260.83L12.243,1265.07C12.634,1265.46 13.266,1265.46 13.657,1265.07L15.071,1263.65C15.462,1263.27 15.462,1262.63 15.071,1262.24L10.829,1258L15.071,1253.76C15.462,1253.37 15.462,1252.73 15.071,1252.34L13.657,1250.93C13.267,1250.54 12.634,1250.54 12.243,1250.93Z" style="fill:rgb(239,125,0);fill-rule:nonzero;"/>
    <path d="M12.243,1300.93L8,1305.17L3.757,1300.93C3.367,1300.54 2.734,1300.54 2.343,1300.93L0.929,1302.34C0.538,1302.73 0.538,1303.37 0.929,1303.76L5.171,1308L0.929,1312.24C0.538,1312.63 0.538,1313.27 0.929,1313.65L2.343,1315.07C2.734,1315.46 3.366,1315.46 3.757,1315.07L8,1310.83L12.243,1315.07C12.634,1315.46 13.266,1315.46 13.657,1315.07L15.071,1313.65C15.462,1313.27 15.462,1312.63 15.071,1312.24L10.829,1308L15.071,1303.76C15.462,1303.37 15.462,1302.73 15.071,1302.34L13.657,1300.93C13.267,1300.54 12.634,1300.54 12.243,1300.93Z" style="fill:rgb(166,79,7);fill-rule:nonzero;"/>
    <path d="M19.192,551.759L17.78,550.344C17.389,549.952 16.756,549.953 16.364,550.344L10.001,556.707L3.637,550.343C3.244,549.951 2.612,549.953 2.222,550.345L0.808,551.759C0.416,552.147 0.417,552.782 0.807,553.171L9.291,561.656L9.293,561.657C9.682,562.047 10.318,562.048 10.708,561.656L19.192,553.17C19.583,552.782 19.583,552.146 19.192,551.759Z" style="fill:black;fill-rule:nonzero;"/>
    <path d="M19.192,510.241L17.78,511.656C17.389,512.048 16.756,512.047 16.364,511.656L10.002,505.293L3.638,511.657C3.245,512.049 2.613,512.047 2.223,511.655L0.809,510.241C0.417,509.853 0.418,509.218 0.808,508.829L9.292,500.344L9.294,500.343C9.683,499.953 10.319,499.952 10.709,500.344L19.192,508.83C19.583,509.218 19.583,509.853 19.192,510.241Z" style="fill:black;fill-rule:nonzero;"/>
    <path d="M5.171,1361.31L0.929,1357.06C0.54,1356.67 0.538,1356.04 0.929,1355.65L1.636,1354.94C2.027,1354.55 2.661,1354.55 3.05,1354.94L5.878,1357.77L12.948,1350.7C13.34,1350.31 13.971,1350.31 14.362,1350.7L15.071,1351.4C15.461,1351.8 15.464,1352.43 15.071,1352.82L6.585,1361.31C6.194,1361.69 5.562,1361.69 5.171,1361.31Z" style="fill:black;fill-rule:nonzero;"/>
    <path d="M11.305,1509.18L8.121,1506L11.303,1502.82C11.695,1502.43 11.693,1501.79 11.303,1501.4L10.596,1500.7C10.204,1500.31 9.574,1500.31 9.183,1500.7L6.001,1503.88L2.818,1500.69C2.426,1500.3 1.794,1500.31 1.404,1500.69L0.696,1501.4C0.305,1501.79 0.305,1502.43 0.696,1502.82L3.878,1506L0.696,1509.18C0.305,1509.57 0.305,1510.2 0.696,1510.6L1.403,1511.3C1.795,1511.69 2.426,1511.69 2.817,1511.3L5.999,1508.12L9.183,1511.3C9.573,1511.69 10.206,1511.69 10.596,1511.3L11.305,1510.6C11.693,1510.21 11.694,1509.57 11.305,1509.18Z" style="fill:rgb(237,28,36);fill-rule:nonzero;"/>
    <path d="M20.753,754.782L17.218,751.247C16.827,750.856 16.194,750.856 15.804,751.247L12.975,754.075L17.925,759.024L20.753,756.196C21.144,755.806 21.144,755.173 20.753,754.782Z" style="fill:rgb(239,125,0);fill-rule:nonzero;"/>
    <path d="M12.268,754.782L0.954,766.097L0.954,771.046L5.903,771.046L17.217,759.731L12.268,754.782ZM4.843,763.621L11.914,756.55C12.11,756.355 12.426,756.355 12.62,756.55C12.817,756.745 12.816,757.061 12.621,757.257L5.55,764.328L5.55,764.329C5.355,764.523 5.038,764.524 4.843,764.327C4.647,764.133 4.647,763.816 4.843,763.621ZM5.55,769.985L3.782,769.985L3.782,768.217L2.015,768.217L2.015,766.449L3.783,764.68L7.318,768.216L5.55,769.985Z" style="fill:rgb(239,125,0);fill-rule:nonzero;"/>
    <path d="M20.753,804.782L17.218,801.247C16.827,800.856 16.194,800.856 15.804,801.247L12.975,804.075L17.925,809.024L20.753,806.196C21.144,805.806 21.144,805.173 20.753,804.782Z" style="fill:rgb(166,79,7);fill-rule:nonzero;"/>
    <path d="M12.268,804.782L0.954,816.097L0.954,821.046L5.903,821.046L17.217,809.731L12.268,804.782ZM4.843,813.621L11.914,806.55C12.11,806.355 12.426,806.355 12.62,806.55C12.817,806.745 12.816,807.061 12.621,807.257L5.55,814.328L5.55,814.329C5.355,814.523 5.038,814.524 4.843,814.327C4.647,814.133 4.647,813.816 4.843,813.621ZM5.55,819.985L3.782,819.985L3.782,818.217L2.015,818.217L2.015,816.449L3.783,814.68L7.318,818.216L5.55,819.985Z" style="fill:rgb(166,79,7);fill-rule:nonzero;"/>
    <path d="M17,1053L15,1053L15,1052C15,1050.9 14.104,1050 13,1050C11.894,1050 11,1050.9 11,1052L10.999,1052L10.999,1053L7,1053L7,1052C7,1050.9 6.104,1050 5,1050C3.896,1050 3,1050.9 3,1052L3,1053L1,1053C0.447,1053 0,1053.45 0,1054L0,1067C0,1067.55 0.447,1068 1,1068L17,1068C17.553,1068 18,1067.55 18,1067L18,1054C18,1053.45 17.553,1053 17,1053ZM12,1052C12,1051.45 12.447,1051 13,1051C13.552,1051 14,1051.45 14,1052L14,1054C14,1054.55 13.552,1055 13,1055C12.447,1055 12,1054.55 12,1054L12,1052ZM4,1052C4,1051.45 4.447,1051 5,1051C5.553,1051 6,1051.45 6,1052L6,1054C6,1054.55 5.553,1055 5,1055C4.447,1055 4,1054.55 4,1054L4,1052ZM16,1066L2,1066L2,1057L16,1057L16,1066Z" style="fill:white;fill-rule:nonzero;"/>
    <path d="M17,1103L15,1103L15,1102C15,1100.9 14.104,1100 13,1100C11.894,1100 11,1100.9 11,1102L10.999,1102L10.999,1103L7,1103L7,1102C7,1100.9 6.104,1100 5,1100C3.896,1100 3,1100.9 3,1102L3,1103L1,1103C0.447,1103 0,1103.45 0,1104L0,1117C0,1117.55 0.447,1118 1,1118L17,1118C17.553,1118 18,1117.55 18,1117L18,1104C18,1103.45 17.553,1103 17,1103ZM12,1102C12,1101.45 12.447,1101 13,1101C13.552,1101 14,1101.45 14,1102L14,1104C14,1104.55 13.552,1105 13,1105C12.447,1105 12,1104.55 12,1104L12,1102ZM4,1102C4,1101.45 4.447,1101 5,1101C5.553,1101 6,1101.45 6,1102L6,1104C6,1104.55 5.553,1105 5,1105C4.447,1105 4,1104.55 4,1104L4,1102ZM16,1116L2,1116L2,1107L16,1107L16,1116Z" style="fill:rgb(230,230,230);fill-rule:nonzero;"/>
    <path d="M20,850L2,850C0.896,850 0,850.896 0,852L0,866C0,867.104 0.896,868 2,868L20,868C21.104,868 22,867.104 22,866L22,852C22,850.896 21.104,850 20,850ZM19.999,852L11.707,860.292C11.316,860.682 10.684,860.684 10.293,860.292L2,852L19.999,852ZM19,866L3,866C2.447,866 2,865.553 2,865L2,854.828L9.586,862.413C10.367,863.195 11.633,863.195 12.414,862.414L20,854.828L20,865C20,865.553 19.553,866 19,866Z" style="fill:rgb(239,125,0);fill-rule:nonzero;"/>
    <path d="M20,900L2,900C0.896,900 0,900.896 0,902L0,916C0,917.104 0.896,918 2,918L20,918C21.104,918 22,917.104 22,916L22,902C22,900.896 21.104,900 20,900ZM19.999,902L11.707,910.292C11.316,910.682 10.684,910.684 10.293,910.292L2,902L19.999,902ZM19,916L3,916C2.447,916 2,915.553 2,915L2,904.828L9.586,912.413C10.367,913.195 11.633,913.195 12.414,912.414L20,904.828L20,915C20,915.553 19.553,916 19,916Z" style="fill:rgb(166,79,7);fill-rule:nonzero;"/>
    <path d="M19,957L19,955L14,950L4,950C3.447,950 3,950.447 3,951L3,957C1.344,957 0,958.344 0,960L0,965C0,965.553 0.447,966 1,966L3,966L3,969C3,969.553 3.447,970 4,970L18,970C18.553,970 19,969.553 19,969L19,966L21,966C21.553,966 22,965.553 22,965L22,960C22,958.344 20.656,957 19,957ZM17,968L5,968L5,964L17,964L17,968ZM17,959L5,959L5,952L14,952L14,954C14,954.553 14.447,955 15,955L17,955L17,959ZM18,960C18,959.447 18.447,959 19,959C19.553,959 20,959.447 20,960C20,960.553 19.553,961 19,961C18.447,961 18,960.553 18,960Z" style="fill:rgb(239,125,0);fill-rule:nonzero;"/>
    <path d="M19,1007L19,1005L14,1000L4,1000C3.447,1000 3,1000.45 3,1001L3,1007C1.344,1007 0,1008.34 0,1010L0,1015C0,1015.55 0.447,1016 1,1016L3,1016L3,1019C3,1019.55 3.447,1020 4,1020L18,1020C18.553,1020 19,1019.55 19,1019L19,1016L21,1016C21.553,1016 22,1015.55 22,1015L22,1010C22,1008.34 20.656,1007 19,1007ZM17,1018L5,1018L5,1014L17,1014L17,1018ZM17,1009L5,1009L5,1002L14,1002L14,1004C14,1004.55 14.447,1005 15,1005L17,1005L17,1009ZM18,1010C18,1009.45 18.447,1009 19,1009C19.553,1009 20,1009.45 20,1010C20,1010.55 19.553,1011 19,1011C18.447,1011 18,1010.55 18,1010Z" style="fill:rgb(166,79,7);fill-rule:nonzero;"/>
    <path d="M13.649,1407.06L11.351,1400.94C11.158,1400.42 10.55,1400 10,1400L8,1400L8,1404L11,1404L7,1408L3,1404L6,1404L6,1400L4,1400C3.45,1400 2.842,1400.42 2.649,1400.94L0.351,1407.06C0.158,1407.58 0,1408.45 0,1409L0,1413C0,1413.55 0.45,1414 1,1414L13,1414C13.55,1414 14,1413.55 14,1413L14,1409C14,1408.45 13.842,1407.58 13.649,1407.06ZM12,1411C12,1411.55 11.55,1412 11,1412L3,1412C2.45,1412 2,1411.55 2,1411L2,1410C2,1409.45 2.45,1409 3,1409L11,1409C11.55,1409 12,1409.45 12,1410L12,1411Z" style="fill:white;fill-rule:nonzero;"/>
    <path d="M5,1454L5,1450L0,1456L5,1462L5,1458C9.971,1458 14,1460.69 14,1464C14,1458.48 9.971,1454 5,1454Z" style="fill:white;fill-rule:nonzero;"/>
    <path d="M7.852,1551.6L4.352,1555.1C4.258,1555.2 4.133,1555.25 4,1555.25C3.867,1555.25 3.742,1555.19 3.648,1555.1L0.148,1551.6C0.055,1551.51 0,1551.38 0,1551.25C0,1550.98 0.227,1550.75 0.5,1550.75L7.5,1550.75C7.773,1550.75 8,1550.98 8,1551.25C8,1551.38 7.945,1551.51 7.852,1551.6Z" style="fill:white;fill-rule:nonzero;"/>
    <path d="M17.707,1615.59L12.892,1610.77C13.59,1609.68 14,1608.39 14,1607C14,1603.13 10.864,1600 7,1600C3.136,1600 0,1603.13 0,1607C0,1610.87 3.136,1614 7,1614C8.389,1614 9.681,1613.59 10.77,1612.89L15.586,1617.71C15.977,1618.1 16.609,1618.1 17,1617.71L17.707,1617C18.098,1616.61 18.098,1615.98 17.707,1615.59ZM7,1612C4.24,1612 2,1609.76 2,1607C2,1604.24 4.24,1602 7,1602C9.76,1602 12,1604.24 12,1607C12,1609.76 9.76,1612 7,1612Z" style="fill:white;fill-rule:nonzero;"/>
    <rect x="0" y="1650" width="36" height="36" style="fill:rgb(239,125,0);"/>
    <g transform="matrix(1,0,0,1,13.8594,1680)">
        <text x="0px" y="0px" style="font-family:'MyriadPro-Regular';font-size:36px;fill:white;">!</text>
    </g>
    <path d="M8.411,1701.18L7.74,1700.44C7.481,1700.07 7.2,1700 6.653,1700L5.223,1700C4.675,1700 4.394,1700.07 4.135,1700.44L3.464,1701.18C1.456,1701.53 0,1702.46 0,1703.15L0,1703.28C0,1704.49 2.658,1705.47 5.938,1705.47C9.218,1705.47 11.876,1704.49 11.876,1703.28L11.876,1703.15C11.875,1702.46 10.42,1701.53 8.411,1701.18ZM7.555,1702.92L4.321,1702.92L2.993,1702.92C2.993,1702.92 4.448,1701.19 4.642,1700.95C4.79,1700.77 4.942,1700.7 5.139,1700.7L6.735,1700.7C6.932,1700.7 7.084,1700.77 7.233,1700.95C7.426,1701.19 8.882,1702.92 8.882,1702.92L7.555,1702.92Z" style="fill:rgb(239,125,0);fill-rule:nonzero;"/>
    <path d="M11.1,1704.87L10.67,1708.66L10.24,1712.45C10.22,1712.63 9.775,1713.02 9.02,1713.36C8.265,1713.7 7.2,1714 5.94,1714C4.68,1714 3.615,1713.7 2.859,1713.36C2.103,1713.02 1.655,1712.63 1.63,1712.45L1.2,1708.66L0.77,1704.87C1.43,1705.23 2.25,1705.51 3.141,1705.68C4.032,1705.86 4.995,1705.95 5.94,1705.95C6.88,1705.95 7.842,1705.86 8.734,1705.68C9.625,1705.51 10.445,1705.23 11.1,1704.87Z" style="fill:rgb(239,125,0);fill-rule:nonzero;"/>
    <path d="M15.74,1763.85L11.46,1759.57C12.081,1758.61 12.445,1757.46 12.445,1756.22C12.445,1752.79 9.658,1750 6.223,1750C2.788,1750 0.001,1752.79 0.001,1756.22C0.001,1759.66 2.788,1762.44 6.223,1762.44C7.458,1762.44 8.606,1762.08 9.574,1761.46L13.855,1765.74C14.202,1766.09 14.765,1766.09 15.112,1765.74L15.74,1765.11C16.087,1764.76 16.087,1764.2 15.74,1763.85ZM6.222,1760.67C3.768,1760.67 1.778,1758.68 1.778,1756.22C1.778,1753.77 3.769,1751.78 6.222,1751.78C8.675,1751.78 10.666,1753.77 10.666,1756.22C10.666,1758.68 8.676,1760.67 6.222,1760.67Z" style="fill:rgb(239,125,0);fill-rule:nonzero;"/>
    <path d="M8.604,307.832C7.958,308.204 7.554,308.958 7.554,309.275C7.554,309.516 7.367,309.8 7.117,309.8L4.491,309.8C4.25,309.8 4.097,309.428 4.097,309.187L4.097,308.695C4.097,307.371 5.41,306.234 6.372,305.797C7.214,305.414 7.564,305.053 7.564,304.354C7.564,303.741 6.766,303.194 5.88,303.194C5.387,303.194 4.94,303.348 4.698,303.512C4.437,303.698 4.174,303.96 3.528,304.77C3.441,304.879 3.31,304.944 3.19,304.944C3.091,304.944 3.004,304.912 2.917,304.857L1.124,303.49C0.938,303.348 0.894,303.107 1.014,302.911C2.195,300.953 3.858,300.001 6.089,300.001C8.429,300.001 11.055,301.872 11.055,304.376C11.054,306.453 9.643,307.251 8.604,307.832ZM7.597,313.562C7.597,313.803 7.4,314 7.16,314L4.535,314C4.295,314 4.097,313.803 4.097,313.562L4.097,310.937C4.097,310.696 4.294,310.499 4.535,310.499L7.16,310.499C7.4,310.499 7.597,310.696 7.597,310.937L7.597,313.562Z" style="fill:white;fill-rule:nonzero;"/>
    <path d="M8.072,106.294L2.416,100.638C2.024,100.246 1.391,100.247 1.001,100.637L0.293,101.345C-0.098,101.735 -0.097,102.368 0.294,102.759L4.536,107.001L0.294,111.243C-0.097,111.634 -0.097,112.267 0.294,112.658L1,113.364L1,113.365C1.391,113.755 2.025,113.754 2.414,113.365L8.07,107.708C8.462,107.317 8.46,106.682 8.072,106.294Z" style="fill:white;fill-rule:nonzero;"/>
    <path d="M13,100.343L12,100.343C11.447,100.343 11,100.791 11,101.343L11,112.656C11,113.209 11.447,113.656 12,113.656L13,113.656C13.552,113.656 14,113.209 14,112.656L14,101.343C14,100.791 13.552,100.343 13,100.343Z" style="fill:white;fill-rule:nonzero;"/>
    <path d="M5.928,156.294L11.584,150.638C11.976,150.246 12.609,150.247 12.999,150.637L13.707,151.345C14.098,151.735 14.097,152.369 13.706,152.759L9.464,157.001L13.706,161.243C14.097,161.634 14.097,162.267 13.706,162.658L13,163.364L13,163.365C12.609,163.755 11.975,163.754 11.586,163.365L5.93,157.708C5.538,157.317 5.54,156.682 5.928,156.294Z" style="fill:white;fill-rule:nonzero;"/>
    <path d="M1,150.343L2,150.343C2.553,150.343 3,150.791 3,151.343L3,162.656C3,163.209 2.553,163.656 2,163.656L1,163.656C0.448,163.656 0,163.209 0,162.656L0,151.343C0,150.792 0.448,150.343 1,150.343Z" style="fill:white;fill-rule:nonzero;"/>
    <path d="M1.11,56.293L6.766,50.637C7.159,50.245 7.791,50.246 8.182,50.637L8.889,51.345C9.28,51.735 9.28,52.368 8.889,52.759L4.647,57L8.889,61.243C9.28,61.633 9.28,62.267 8.889,62.658L8.182,63.364L8.182,63.365C7.791,63.755 7.157,63.754 6.768,63.365L1.112,57.708C0.719,57.316 0.721,56.682 1.11,56.293Z" style="fill:white;fill-rule:nonzero;"/>
    <path d="M12.246,208.24C11.16,209.327 9.659,210 8,210C6.341,210 4.839,209.327 3.753,208.24C1.505,209.655 0,212.145 0,215C0,215.552 0.448,216 1,216L15,216C15.552,216 16,215.552 16,215C16,212.145 14.496,209.655 12.246,208.24Z" style="fill:white;fill-rule:nonzero;"/>
    <circle cx="8" cy="204" r="4" style="fill:white;"/>
    <path d="M22.246,258.24C21.16,259.327 19.659,260 18,260C16.341,260 14.839,259.327 13.753,258.24C11.505,259.655 10,262.146 10,265C10,265.552 10.448,266 11,266L25,266C25.552,266 26,265.552 26,265C26,262.146 24.496,259.655 22.246,258.24Z" style="fill:white;fill-rule:nonzero;"/>
    <circle cx="18" cy="254" r="4" style="fill:white;"/>
    <path d="M5.171,361.304L0.929,357.06C0.54,356.673 0.538,356.037 0.929,355.648L1.636,354.939C2.027,354.548 2.661,354.552 3.05,354.939L5.878,357.767L12.948,350.697C13.34,350.306 13.971,350.306 14.362,350.697L15.071,351.404C15.461,351.795 15.464,352.429 15.071,352.818L6.585,361.304C6.194,361.695 5.562,361.695 5.171,361.304Z" style="fill:white;fill-rule:nonzero;"/>
    <path d="M11.305,409.183L8.121,406L11.303,402.818C11.695,402.427 11.693,401.795 11.303,401.404L10.596,400.697C10.204,400.306 9.574,400.306 9.183,400.697L6.001,403.879L2.818,400.696C2.426,400.304 1.794,400.307 1.404,400.696L0.696,401.404C0.305,401.795 0.305,402.427 0.696,402.818L3.878,406.002L0.696,409.184C0.305,409.575 0.305,410.206 0.696,410.598L1.403,411.305C1.795,411.694 2.426,411.696 2.817,411.305L5.999,408.123L9.183,411.305C9.573,411.696 10.206,411.695 10.596,411.305L11.305,410.598C11.693,410.207 11.694,409.574 11.305,409.183Z" style="fill:white;fill-rule:nonzero;"/>
    <path d="M13.002,455.5L8.5,455.5L8.499,451.001C8.501,450.448 8.052,450.001 7.499,450.001L6.5,450.001C5.946,450.001 5.501,450.447 5.501,451L5.501,455.499L0.999,455.499C0.446,455.499 0.001,455.948 0,456.499L-0.001,457.501C0,458.053 0.448,458.501 0.999,458.501L5.501,458.502L5.501,463.001C5.501,463.554 5.948,464.001 6.501,464.001L7.501,464.001C8.052,463.999 8.5,463.554 8.501,463.001L8.5,458.502L13,458.501C13.552,458.501 14,458.052 14,457.501L14.001,456.5C14,455.948 13.553,455.501 13.002,455.5Z" style="fill:white;fill-rule:nonzero;"/>
    <path d="M8.003,256.999L5.501,256.999L5.5,254.5C5.502,253.947 5.053,253.5 4.5,253.5L4.501,253.5C3.947,253.5 3.502,253.946 3.502,254.499L3.502,256.998L1,256.998C0.447,256.998 0.002,257.447 0.001,257.998L0,258C0.001,258.552 0.449,259 1,259L3.502,259.001L3.502,261.5C3.502,262.053 3.949,262.5 4.502,262.5C5.053,262.498 5.501,262.053 5.502,261.5L5.501,259.001L8.002,259C8.554,259 9.002,258.551 9.002,258L9.003,257.999C9.002,257.447 8.555,257 8.003,256.999Z" style="fill:white;fill-rule:nonzero;"/>
    <path d="M8.89,6.293L3.234,0.637C2.841,0.245 2.209,0.246 1.818,0.637L1.111,1.344C0.72,1.734 0.72,2.367 1.111,2.758L5.353,7L1.111,11.243C0.72,11.633 0.72,12.267 1.111,12.658L1.818,13.364L1.818,13.365C2.209,13.755 2.843,13.754 3.232,13.365L8.888,7.708C9.281,7.316 9.279,6.682 8.89,6.293Z" style="fill:white;fill-rule:nonzero;"/>
    <g>
        <path d="M9,1812L9,1814L2,1814L2,1802L9,1802L9,1804L11,1804L11,1800L0,1800L0,1816L11,1816L11,1812L9,1812Z" style="fill:white;fill-rule:nonzero;"/>
        <path d="M17,1808L13,1804L13,1806L6,1806L6,1810L13,1810L13,1812L17,1808Z" style="fill:white;fill-rule:nonzero;"/>
    </g>
    <path d="M30,1863.33L30,1866.67C30,1867.59 29.254,1868.33 28.333,1868.33L18.333,1868.33L18.333,1878.33C18.333,1879.25 17.586,1880 16.666,1880L13.333,1880C12.412,1880 11.666,1879.26 11.666,1878.33L11.666,1868.33L1.666,1868.33C0.745,1868.33 -0.001,1867.59 -0.001,1866.67L-0.001,1863.33C-0.001,1862.41 0.744,1861.67 1.666,1861.67L11.666,1861.67L11.666,1851.67C11.666,1850.75 12.411,1850 13.333,1850L16.666,1850C17.586,1850 18.333,1850.74 18.333,1851.67L18.333,1861.67L28.333,1861.67C29.254,1861.67 30,1862.41 30,1863.33Z" style="fill:rgb(239,125,0);fill-rule:nonzero;"/>
    <path d="M30,1913.33L30,1916.67C30,1917.59 29.254,1918.33 28.333,1918.33L18.333,1918.33L11.666,1918.33L1.666,1918.33C0.745,1918.33 -0.001,1917.59 -0.001,1916.67L-0.001,1913.33C-0.001,1912.41 0.744,1911.67 1.666,1911.67L28.333,1911.67C29.254,1911.67 30,1912.41 30,1913.33Z" style="fill:rgb(239,125,0);fill-rule:nonzero;"/>
    <g>
        <path d="M20.799,1954.6L17.264,1951.06C16.873,1950.67 16.24,1950.67 15.85,1951.06L13.021,1953.89L17.971,1958.84L20.799,1956.01C21.189,1955.62 21.189,1954.99 20.799,1954.6Z" style="fill:white;fill-rule:nonzero;"/>
        <path d="M12.313,1954.6L1,1965.91L1,1970.86L5.949,1970.86L17.263,1959.55L12.313,1954.6ZM4.889,1963.43L11.96,1956.36C12.156,1956.17 12.472,1956.17 12.666,1956.36C12.863,1956.56 12.862,1956.88 12.667,1957.07L5.596,1964.14L5.596,1964.14C5.401,1964.34 5.084,1964.34 4.889,1964.14C4.694,1963.95 4.694,1963.63 4.889,1963.44L4.889,1963.43ZM5.596,1969.8L3.828,1969.8L3.828,1968.03L2.061,1968.03L2.061,1966.26L3.829,1964.49L7.364,1968.03L5.596,1969.8Z" style="fill:white;fill-rule:nonzero;"/>
    </g>
</svg>
